<?xml version="1.0" encoding="utf-8"?>
<!-- Generator: Adobe Illustrator 28.3.0, SVG Export Plug-In . SVG Version: 6.00 Build 0)  -->
<svg version="1.1" id="Layer_1" xmlns="http://www.w3.org/2000/svg" xmlns:xlink="http://www.w3.org/1999/xlink" x="0px" y="0px"
	 viewBox="0 0 1024 1024" style="enable-background:new 0 0 1024 1024;" xml:space="preserve">
<style type="text/css">
	.st0{fill:#FA8303;}
	.st1{fill:#4670FE;}
	.st2{fill:#FA7016;}
	.st3{fill:#FB5206;}
	.st4{fill:#012CFA;}
	.st5{fill:#F11C15;}
	.st6{fill:#0461FE;}
	.st7{fill:url(#SVGID_1_);}
	.st8{fill:#CEDDF8;}
	.st9{fill:#A5B6FA;}
	.st10{fill:#BBCDF8;}
	.st11{fill:#FEFEFE;}
	.st12{fill:#E4EFF7;}
</style>
<path class="st0" d="M616.1,204.1c5.4-0.2,11.8-1.5,16.1,2.6c3.2,3.1,2.8,10.3,2.8,14.5l0,36c0,5.8,0.5,12-0.1,17.8
	c-0.2,2-0.6,5.6-2.1,7.1c-3.7,3.6-9.9,1.3-14.4,2.3l-0.5,0.1l-0.1-0.4c-0.3-3.9,4-5.9,4.2-12.2c0.4-12.2,0-24.6,0-36.8
	c0-6.5,1-17.9-0.6-24C620.6,208.4,618,206.1,616.1,204.1z"/>
<path class="st0" d="M405.1,283.8c-3.7,0.2-9.3,1.1-12.3-1.7c-2.3-2.1-3.1-6.3-3.2-9.3c-0.5-12.6,0.3-25.4,0.4-38
	c0.1-6.8-0.8-14.1,0.1-20.8c0.4-2.6,1.2-5.3,3.1-7.2c4.3-4.4,12-3.3,17.6-3.1c-2.3,0.4-4,0.8-5.4,2.7c-1.5,1.9-1.8,4.4-2,6.8
	c-1.3,13-0.4,27-0.4,40.1c0,6.2-0.9,15.1,0.3,21c0.8,4.1,4.2,5.8,5.6,9.3L405.1,283.8z"/>
<path class="st1" d="M455.2,145.5c6.7-0.1,13.4-0.2,20.2,0c-11.4,4.3-21.5,9.5-26.7,21.1c-4.4,10-2.7,26-2.7,36.9l-3.2,0
	c-5.1-0.2-10.3,0-15.4,0c-0.1-9.5-1.6-28.8,0.4-37.3c0.9-3.7,2.6-7,5-9.9C438.6,149.2,446.1,146.4,455.2,145.5z"/>
<path class="st2" d="M471.4,86.6c11.7,0.6,23.5-0.3,35.2,0.3c-4.8,0.4-9.6,0.3-14.5,0.3c-4,19.4-8.1,38.6-11.1,58.2l-5.7,0.2
	c-6.7-0.2-13.4-0.1-20.2,0c2.4-5.8,3.6-12.6,5.3-18.7L471.4,86.6z"/>
<path class="st3" d="M410.8,203.6c1.9,0,3.9-0.1,5.8,0c1.8,2.1,4.1,4.3,4.7,7c1.6,6.4,0.6,17.8,0.6,24.7c0,11.8,0.6,24-0.2,35.7
	c-0.2,2.2-0.4,4.4-1.5,6.4c-1.6,1.9-3.4,3.7-3.7,6.2c-2.5,0-5.1-0.1-7.6-0.1c-1.4-3.5-4.7-5.1-5.6-9.3c-1.2-5.9-0.3-14.8-0.3-21
	c0-13.1-0.9-27.1,0.4-40.1c0.2-2.3,0.6-4.8,2-6.8C406.8,204.4,408.5,204,410.8,203.6z"/>
<path class="st3" d="M506.7,86.9c4.6-0.2,9.3-0.1,13.9-0.1l0.4,35.8c0.1,7.5,0.6,15.4-0.1,22.8l-39.8,0c3.1-19.6,7.2-38.8,11.1-58.2
	C497,87.2,501.9,87.3,506.7,86.9z"/>
<path class="st4" d="M565.8,145.5c9.2,0,16.9,1,23.7,7.9c3.4,3.4,5.9,7.8,7.2,12.5c2.3,8.9,0.9,28.1,0.9,38c-4.5-0.2-9.1-0.3-13.6,0
	c-2.7-0.2-5.4,0-8.1,0c-6.8-0.2-13.6-0.1-20.3-0.1c0.1-2.3,3.9-6.7,5.2-8.8c4.2-6.6,4.5-16.3,2.8-23.7c-2-8.5-7.2-16.5-14.9-20.9
	c-3.1-1.7-6.4-2.9-9.3-4.8c-0.1-0.1-0.3-0.2-0.4-0.3L565.8,145.5z"/>
<path class="st5" d="M520.6,86.8l30.6,0.2c4.8,19.5,10,39,14.6,58.5l-26.9,0c-6-0.3-12-0.1-18-0.2c0.7-7.4,0.2-15.3,0.1-22.8
	L520.6,86.8z"/>
<path class="st3" d="M427.3,203.6c5.1,0,10.3-0.1,15.4,0l3.2,0l2.9,0.1c8.5,0,17-0.1,25.5,0.1c3-0.1,5.9-0.1,8.9-0.1
	c1.7,2,3.6,4,4.3,6.6c1.2,4.5,0.9,55.8,0.3,62.9c-0.1,1.2-0.4,2.3-0.7,3.4c-1.4,2.4-2.9,4.5-4.7,6.7l-5.4,0.1l-0.1-0.1
	c-2.3-2-4.3-4-6.2-6.2l-0.6,0.6c-4-0.2-13.3,0.9-16.5-0.6l-4.1,6.4l-5.7,0.2c-2.3-2.1-4.5-4.3-6.6-6.6c-1.7,1.3-13,1.3-15.5,0.9
	c-0.6-0.1-1.1-0.3-1.7-0.6c1.1-2,1.4-4.1,1.5-6.4c0.9-11.7,0.3-23.9,0.2-35.7c0-6.9,1-18.3-0.6-24.7c-0.7-2.8-2.9-4.9-4.7-7
	L427.3,203.6z"/>
<path class="st0" d="M448.9,203.7c8.5,0,17-0.1,25.5,0.1c-1.9,1.9-3.4,3.6-4.8,6c-0.6,12.3-0.2,24.8-0.3,37.1c0,8.2-0.7,17,0.1,25.1
	c0.2,1.8,0.6,3.4,1.3,5l-0.6,0.6c-4-0.2-13.3,0.9-16.5-0.6c0.7-1.5,1.1-3.1,1.2-4.8c0.8-8.2,0.2-17.1,0.2-25.3
	c0-12.8,0.3-25.7-0.2-38.4C453,206.9,450.9,205.3,448.9,203.7z"/>
<path class="st0" d="M427.3,203.6c5.1,0,10.3-0.1,15.4,0c-3.4,2.7-6.1,4.7-6.5,9.3c-0.9,9.3-0.3,19.4-0.3,28.8
	c0,10.1-0.6,20.7,0.2,30.8c0.1,1.6,0.5,3.1,1.2,4.6c-1.7,1.3-13,1.3-15.5,0.9c-0.6-0.1-1.1-0.3-1.7-0.6c1.1-2,1.4-4.1,1.5-6.4
	c0.9-11.7,0.3-23.9,0.2-35.7c0-6.9,1-18.3-0.6-24.7c-0.7-2.8-2.9-4.9-4.7-7L427.3,203.6z"/>
<path class="st3" d="M474.4,203.8c3-0.1,5.9-0.1,8.9-0.1c1.7,2,3.6,4,4.3,6.6c1.2,4.5,0.9,55.8,0.3,62.9c-0.1,1.2-0.4,2.3-0.7,3.4
	c-1.4,2.4-2.9,4.5-4.7,6.7l-5.4,0.1l-0.1-0.1c-2.3-2-4.3-4-6.2-6.2c-0.8-1.6-1.1-3.3-1.3-5c-0.8-8.2-0.2-16.9-0.1-25.1
	c0-12.4-0.3-24.8,0.3-37.1C471,207.4,472.5,205.7,474.4,203.8z"/>
<path class="st3" d="M597.5,203.9c3.8,0.1,7.6,0.1,11.3,0.2c2.4,0,4.8-0.1,7.2,0c1.9,2,4.5,4.3,5.3,7.1c1.6,6,0.6,17.5,0.6,24
	c0,12.2,0.4,24.6,0,36.8c-0.2,6.3-4.5,8.3-4.2,12.2c-2.7,0.1-5.4,0-8,0c-5.1,0.1-10.2,0.1-15.4,0.1l-12.5-0.1l-3.8-0.1
	c-1.5-2.1-4.9-4.2-6.9-6.4c-4.5,0.5-12.5,0.8-16.8,0l-0.3-1.1c2.4-7.1,1-56.4,0.9-67.5c-1.2-1.8-2.8-3.4-4.2-5l4.6-0.1
	c6.8,0,13.6-0.2,20.3,0.1c2.7,0,5.4-0.2,8.1,0C588.4,203.5,593,203.6,597.5,203.9z"/>
<path class="st0" d="M597.5,203.9c3.8,0.1,7.6,0.1,11.3,0.2c-2.1,1.6-4.2,3.4-5.9,5.4c-0.2,14-0.1,28-0.1,42c0,7.2-1,17.7,0.8,24.4
	c1,3.5,4.3,5.3,6,8.2c-5.1,0.1-10.2,0.1-15.4,0.1l-12.5-0.1c0.7-0.9,0.4-0.6,1.1-1.2c0.9-0.7,1.8-1.5,2.6-2.3c1.6-1.6,2.3-3,2.8-5.2
	c1.5-7.4,0.6-16,0.6-23.5l-0.1-41.6c-1.3-2.3-3.3-4.4-5-6.4C588.4,203.5,593,203.6,597.5,203.9z"/>
<path class="st3" d="M575.8,203.9c2.7,0,5.4-0.2,8.1,0c1.8,2,3.7,4,5,6.4l0.1,41.6c0,7.5,0.8,16.2-0.6,23.5
	c-0.4,2.2-1.2,3.6-2.8,5.2c-0.8,0.8-1.7,1.5-2.6,2.3c-0.7,0.6-0.5,0.4-1.1,1.2l-3.8-0.1c-1.5-2.1-4.9-4.2-6.9-6.4
	c-4.5,0.5-12.5,0.8-16.8,0l-0.3-1.1c2.4-7.1,1-56.4,0.9-67.5c-1.2-1.8-2.8-3.4-4.2-5l4.6-0.1C562.2,203.8,569,203.6,575.8,203.9z"/>
<path class="st0" d="M555.4,203.8c6.8,0,13.6-0.2,20.3,0.1c-4,3.6-5.4,5.3-5.7,10.8c-0.5,8.7-1.1,57.3,1.2,62.8
	c-4.5,0.5-12.5,0.8-16.8,0l-0.3-1.1c2.4-7.1,1-56.4,0.9-67.5c-1.2-1.8-2.8-3.4-4.2-5L555.4,203.8z"/>
<path class="st6" d="M520.8,145.3c6,0,12-0.1,18,0.2c0.1,0.1,0.3,0.2,0.4,0.3c3,1.9,6.3,3.1,9.3,4.8c7.7,4.4,12.9,12.3,14.9,20.9
	c1.7,7.4,1.4,17.1-2.8,23.7c-1.3,2.1-5.1,6.5-5.2,8.8l-4.6,0.1l-8.4,0c-8.5-0.1-17.1-0.1-25.6-0.1c-2.7-0.2-5.5-0.1-8.2-0.2
	c-8.4-0.1-16.8-0.1-25.2,0c-3,0-5.9,0-8.9,0.1c-8.5-0.2-17-0.1-25.5-0.1l-2.9-0.1c0.1-10.9-1.7-26.9,2.7-36.9
	c5.2-11.7,15.3-16.9,26.7-21.1l5.7-0.2L520.8,145.3z"/>
<linearGradient id="SVGID_1_" gradientUnits="userSpaceOnUse" x1="745.1611" y1="425.8288" x2="296.0403" y2="470.1005" gradientTransform="matrix(1 0 0 -1 0 1024)">
	<stop  offset="0" style="stop-color:#0236F9"/>
	<stop  offset="1" style="stop-color:#0F64FF"/>
</linearGradient>
<path class="st7" d="M483.3,203.7c8.4-0.1,16.8-0.1,25.2,0c2.7,0,5.5-0.1,8.2,0.2c8.5-0.1,17.1,0,25.6,0.1l8.4,0
	c1.4,1.6,3,3.2,4.2,5c0.1,11.2,1.5,60.4-0.9,67.5l0.3,1.1c4.3,0.8,12.3,0.5,16.8,0c2,2.3,5.4,4.4,6.9,6.4l3.8,0.1l12.5,0.1
	c5.1,0,10.2,0.1,15.4-0.1c2.7,0,5.4,0.1,8,0l0.1,0.4l0.5-0.1l0,22.7c0.1,0.2,0.3,0.3,0.4,0.5c4.9,6.1,11.4,11.4,17.1,16.8l37.9,36.2
	c8.1,7.8,16.8,15.4,23.9,24.1c4.6,5.6,8.3,11.8,11.3,18.5c4.5,10.2,7.5,21.5,8.2,32.6c0.6,10.2,0.3,20.6,0.3,30.9l0.1,54.1l0,175.5
	l0,141.5l0,34.9c0,6.8,0.4,13.8-0.4,20.5c-1.2,11.8-8,23.2-17.1,30.6c-6.3,5-14.5,8.7-22.5,9.6c-6.7,0.8-13.7,0.5-20.5,0.5
	l-32.8,0.1L511.2,934l-109.4,0.3l-32.9,0.1c-7.6,0-15.3,0.3-22.8-0.5c-11.2-1.2-22.5-8.9-29.4-17.6c-5.1-6.4-8.2-14.6-8.9-22.8
	c-0.8-9.5-0.3-19.4-0.3-29l0-54.6l0.1-169.4l0.1-150.4l0.1-39.9c0-9.3-0.5-19,0.7-28.2c1.5-11.5,6.4-23.9,13.1-33.3
	c10-14.1,25.8-26.5,38.4-38.3c15-13.9,29.8-28.2,45.2-41.7c-0.1-5.5-0.3-11-0.1-16.4l-0.1-8.3l3.7-0.3c2.5,0.1,5.1,0.2,7.6,0.1
	c0.3-2.5,2.1-4.3,3.7-6.2c0.6,0.3,1,0.5,1.7,0.6c2.5,0.4,13.8,0.4,15.5-0.9c2.1,2.4,4.3,4.5,6.6,6.6l5.7-0.2l4.1-6.4
	c3.2,1.5,12.5,0.4,16.5,0.6l0.6-0.6c1.9,2.3,3.9,4.3,6.2,6.2l0.1,0.1l5.4-0.1c1.8-2.2,3.3-4.2,4.7-6.7c0.3-1.1,0.6-2.2,0.7-3.4
	c0.6-7.2,0.9-58.4-0.3-62.9C486.9,207.7,485,205.7,483.3,203.7z"/>
<path class="st4" d="M609.8,284c2.7,0,5.4,0.1,8,0l0.1,0.4c0,5.8,0,11.7-0.1,17.5c-7.7-0.1-15.7-0.6-23.3,0.4l-0.1-18.2
	C599.5,284.1,604.7,284.2,609.8,284z"/>
<path class="st8" d="M348.2,880.5c-0.9,6.6,1.3,27-0.6,31c-3.7-1.4-7-3.5-9.8-6.3c-6.9-7.1-6.9-15.2-6.8-24.3
	C336.7,880.6,342.4,880.7,348.2,880.5z"/>
<path class="st4" d="M408.8,283.4c2.5,0.1,5.1,0.2,7.6,0.1c4.3,0,8.7-0.1,13.1,0.3c-0.1,5.7,0.2,11.5-0.4,17.1
	c-7.8,0.5-15.6,0.3-23.4,0.4c0-2.4,0.6-7.4-0.5-9.3l-0.1-8.3L408.8,283.4z"/>
<path class="st9" d="M694.1,813.4c0.9,15.6,0.3,31.5,0.4,47.1c0,10.1,1.2,22.1-0.6,31.9c-0.8,4.2-2.5,8-5.4,11.3
	c-4.9,5.5-11.6,8-18.8,8.3c-13.5,0.5-27.1-0.1-40.7-0.1c3.8-1,8.9-4.7,12.1-7.1c8.4-6.4,13.3-14.3,14.8-24.9l38.1,0.3l-0.1-43.2
	C693.8,829.3,693.4,821.2,694.1,813.4z"/>
<path class="st10" d="M348.2,880.5c12.7-0.7,25.5-0.3,38.2-0.3l71.2,0l198.2-0.2c-1.5,10.5-6.4,18.4-14.8,24.9
	c-3.2,2.4-8.3,6-12.1,7.1c-20.7,0.4-41.4,0-62.1,0l-122.5,0l-62.9,0c-11,0-22.9,0.8-33.8-0.5C349.5,907.5,347.2,887.1,348.2,880.5z"
	/>
<path class="st11" d="M429.1,301c6,0,14.4-0.9,20.2,0.3c0.1,4.6,0.3,9.1,0.2,13.7c-0.1,0.2-0.2,0.3-0.3,0.5
	c-4.6,7.1-12.1,12.9-18.1,19c-15.7,16.1-31.5,32.1-46.7,48.6c-7.9,8.6-16,16.9-22.6,26.6c-5.4,7.9-10.1,17.2-11.9,26.7
	c-1.2,6.7-0.9,13.7-0.9,20.5c0,13.3,0.7,26.8,0.1,40.1l-0.1,206l-0.1,77c-0.1,14-0.5,28-0.2,42l-0.1,39.6c0,5.8,0.8,13.3-0.4,18.9
	c-5.7,0.3-11.5,0.2-17.2,0.4c-0.4-31.4,0-62.9,0-94.3l0-190.1l0-106.8c0-18.8-1-38.2,0.3-56.9c0.5-8,2.7-16,6.2-23.1
	c7.6-15.5,24.7-29,37-40.9l35-33.3c6.1-5.8,14.5-12.1,19.1-19.1c0.1-0.2,0.2-0.3,0.3-0.5C429.1,311,429,305.9,429.1,301z"/>
<path class="st12" d="M348.7,821.9l174.5,0.1l57.5,0c10.2,0,20.5-0.4,30.6,0.1c14.6,1.2,30,0.7,44.7,0.4l0,37.8
	c0,6.5,0.4,13.2-0.2,19.7l-198.2,0.2l-71.2,0c-12.7,0-25.6-0.4-38.2,0.3c1.2-5.6,0.4-13.1,0.4-18.9L348.7,821.9z"/>
<path class="st10" d="M483.3,203.7c8.4-0.1,16.8-0.1,25.2,0c2.7,0,5.5-0.1,8.2,0.2c8.5-0.1,17.1,0,25.6,0.1l8.4,0
	c1.4,1.6,3,3.2,4.2,5c0.1,11.2,1.5,60.4-0.9,67.5l0.3,1.1c4.3,0.8,12.3,0.5,16.8,0c2,2.3,5.4,4.4,6.9,6.4l3.8,0.1l12.5,0.1l0.1,18.2
	c0,4.5,0.3,9.1-0.3,13.5l44.8,43.6c14,13.6,40.6,36.6,48.8,53.3c5.5,11.2,6.2,22.8,6.2,35l0,247.1l0.1,79.8c0,12.7,0.9,26.1,0,38.7
	c-0.7,7.7-0.3,15.9-0.2,23.6l0.1,43.2l-38.1-0.3c0.5-6.5,0.2-13.2,0.2-19.7l0-37.8c-14.7,0.2-30,0.8-44.7-0.4
	c14.9-0.3,29.8-0.1,44.7-0.1c-0.6-28.3,0-56.8,0-85.2l0.3-144.3l0.4-65c0.1-9.9-0.6-20.7,0.5-30.5c0.1-0.5,0.2-0.5,0.3-1.1
	c0.6-3.9,0.2-8.3,0.2-12.3l-0.1-23.9c0.1-10.8,1.1-22.5-0.6-33.2c-3.9-23.7-19.6-41.2-35.5-58c-8.4-9-17.1-17.7-25.9-26.3
	c-7.4-7.2-22.9-20.2-28.2-27.9c-0.1-0.1-0.2-0.3-0.3-0.4c0-4.1,0.4-8.5-0.3-12.5c-10.8,0.1-21.6-0.1-32.5-0.1
	c-5.4,0.5-11.1,0.2-16.6,0.2l-28.8,0l-24.4,0c-5,0-10.2,0.3-15.2-0.3c-5.8-1.2-14.2-0.3-20.2-0.3c0.6-5.6,0.3-11.5,0.4-17.1
	c-4.3-0.4-8.7-0.3-13.1-0.3c0.3-2.5,2.1-4.3,3.7-6.2c0.6,0.3,1,0.5,1.7,0.6c2.5,0.4,13.8,0.4,15.5-0.9c2.1,2.4,4.3,4.5,6.6,6.6
	l5.7-0.2l4.1-6.4c3.2,1.5,12.5,0.4,16.5,0.6l0.6-0.6c1.9,2.3,3.9,4.3,6.2,6.2l0.1,0.1l5.4-0.1c1.8-2.2,3.3-4.2,4.7-6.7
	c0.3-1.1,0.6-2.2,0.7-3.4c0.6-7.2,0.9-58.4-0.3-62.9C486.9,207.7,485,205.7,483.3,203.7z"/>
<path class="st8" d="M429.4,283.9c6.4,0.1,12.7,0.1,19.1,0.1c0.3,5.7,0.5,11.3,0.5,17l57,0.1c9.1,0,19.2-0.8,28.2,0.4
	c-5.4,0.5-11.1,0.2-16.6,0.2l-28.8,0l-24.4,0c-5,0-10.2,0.3-15.2-0.3c-5.8-1.2-14.2-0.3-20.2-0.3
	C429.6,295.4,429.4,289.5,429.4,283.9z"/>
<path class="st9" d="M578.2,284l3.8,0.1l12.5,0.1l0.1,18.2c0,4.5,0.3,9.1-0.3,13.5c-0.7-4.6-0.2-9.6-0.2-14.2
	c-8.7,0.4-18.4,0.9-27.1-0.3c0.2-5.8,0.4-11.5,0.2-17.3C570.8,284.1,574.5,284.2,578.2,284z"/>
<path class="st2" d="M538.3,277.5c1.2,1.4,2.2,2.9,3.7,3.9c1.4,1,3.1,1.6,4.9,1.3c3.2-0.7,5.5-3.7,7.3-6.2l0.3,1.1
	c4.3,0.8,12.3,0.5,16.8,0c2,2.3,5.4,4.4,6.9,6.4c-3.7,0.2-7.4,0.1-11,0.1l-118.6-0.1c-6.4,0.1-12.7,0-19.1-0.1
	c-4.3-0.4-8.7-0.3-13.1-0.3c0.3-2.5,2.1-4.3,3.7-6.2c0.6,0.3,1,0.5,1.7,0.6c2.5,0.4,13.8,0.4,15.5-0.9c2.1,2.4,4.3,4.5,6.6,6.6
	l5.7-0.2l4.1-6.4c3.2,1.5,12.5,0.4,16.5,0.6l0.6-0.6c1.9,2.3,3.9,4.3,6.2,6.2l0.1,0.1l5.4-0.1c1.8-2.2,3.3-4.2,4.7-6.7l0.7,0.9
	c2.5,0.1,14.9,0.8,16.4,0c1.8,1.4,3.6,4,5.2,5.7c1.7,0.1,3.4,0,5.1,0c2.4-1.8,4.3-3.9,6.2-6.2C524.9,278.3,533.7,277.4,538.3,277.5z
	"/>
<path class="st3" d="M483.3,203.7c8.4-0.1,16.8-0.1,25.2,0c2.7,0,5.5-0.1,8.2,0.2c8.5-0.1,17.1,0,25.6,0.1l8.4,0
	c1.4,1.6,3,3.2,4.2,5c0.1,11.2,1.5,60.4-0.9,67.5c-1.8,2.5-4,5.5-7.3,6.2c-1.7,0.4-3.4-0.3-4.9-1.3c-1.5-1-2.5-2.6-3.7-3.9
	c-4.6-0.1-13.4,0.8-17.6-0.4c-1.9,2.3-3.8,4.4-6.2,6.2c-1.7,0.1-3.4,0.2-5.1,0c-1.6-1.7-3.4-4.3-5.2-5.7c-1.5,0.7-14,0.1-16.4,0
	l-0.7-0.9c0.3-1.1,0.6-2.2,0.7-3.4c0.6-7.2,0.9-58.4-0.3-62.9C486.9,207.7,485,205.7,483.3,203.7z"/>
<path class="st0" d="M483.3,203.7c8.4-0.1,16.8-0.1,25.2,0l-4.3,4.9c-1.3,5.5-1.7,63.2-0.1,68.7c0,0.1,0,0.2,0.1,0.3
	c-1.5,0.7-14,0.1-16.4,0l-0.7-0.9c0.3-1.1,0.6-2.2,0.7-3.4c0.6-7.2,0.9-58.4-0.3-62.9C486.9,207.7,485,205.7,483.3,203.7z"/>
<path class="st3" d="M516.8,203.9c8.5-0.1,17.1,0,25.6,0.1l8.4,0c1.4,1.6,3,3.2,4.2,5c0.1,11.2,1.5,60.4-0.9,67.5
	c-1.8,2.5-4,5.5-7.3,6.2c-1.7,0.4-3.4-0.3-4.9-1.3c-1.5-1-2.5-2.6-3.7-3.9c-4.6-0.1-13.4,0.8-17.6-0.4c1.1-2.8,1-6.2,1.1-9.1
	c0.2-13.2,0-26.5-0.1-39.7c-0.1-5.5,0.8-13.2-0.6-18.4C520.4,207.3,518.5,205.7,516.8,203.9z"/>
<path class="st0" d="M516.8,203.9c8.5-0.1,17.1,0,25.6,0.1c-4.6,4.3-5.2,6-5.5,12.4c-0.3,9.6-1.4,55.7,1.4,61.2
	c-4.6-0.1-13.4,0.8-17.6-0.4c1.1-2.8,1-6.2,1.1-9.1c0.2-13.2,0-26.5-0.1-39.7c-0.1-5.5,0.8-13.2-0.6-18.4
	C520.4,207.3,518.5,205.7,516.8,203.9z"/>
<path class="st4" d="M657.2,497h16.4l0.3,325l-17.9,0c-0.6-28.3,0-56.8,0-85.2l0.3-144.3l0.4-65C656.7,517.6,656,506.8,657.2,497z"
	/>
<path class="st12" d="M534.2,301.5c10.8,0,21.6,0.2,32.5,0.1c0.7,4,0.3,8.4,0.3,12.5c0.1,0.1,0.2,0.3,0.3,0.4
	c5.4,7.7,20.9,20.7,28.2,27.9c8.8,8.6,17.5,17.3,25.9,26.3c15.9,16.8,31.7,34.3,35.5,58c1.7,10.6,0.7,22.4,0.6,33.2l0.1,23.9
	c0,3.9,0.4,8.4-0.2,12.3c-0.1,0.5-0.1,0.6-0.3,1.1l-308.1,0c0.6-13.3-0.1-26.8-0.1-40.1c0-6.8-0.4-13.8,0.9-20.5
	c1.8-9.5,6.5-18.8,11.9-26.7c6.6-9.7,14.7-18,22.6-26.6c15.2-16.5,31.1-32.5,46.7-48.6c5.9-6.1,13.4-11.9,18.1-19
	c0.1-0.2,0.2-0.3,0.3-0.5c0.1-4.6,0-9.1-0.2-13.7c5,0.6,10.2,0.3,15.2,0.3l24.4,0l28.8,0C523.1,301.7,528.8,302,534.2,301.5z"/>
<path class="st6" d="M349.1,496.9l308.1,0c-1.2,9.8-0.5,20.6-0.5,30.5l-0.4,65L656,736.8c0,28.3-0.6,56.8,0,85.2
	c-14.9,0-29.8-0.2-44.7,0.1c-10.1-0.5-20.5-0.1-30.6-0.1l-57.5,0l-174.5-0.1c-0.2-14,0.2-28,0.2-42l0.1-77L349.1,496.9z"/>
</svg>
