<?xml version="1.0" encoding="utf-8"?>
<!-- Generator: Adobe Illustrator 28.3.0, SVG Export Plug-In . SVG Version: 6.00 Build 0)  -->
<svg version="1.1" id="Layer_1" xmlns="http://www.w3.org/2000/svg" xmlns:xlink="http://www.w3.org/1999/xlink" x="0px" y="0px"
	 viewBox="0 0 1024 1024" style="enable-background:new 0 0 1024 1024;" xml:space="preserve">
<style type="text/css">
	.st0{fill:#FDFEFC;}
	.st1{fill:#05073C;}
	.st2{fill:#E3D8CC;}
	.st3{fill:#42F5F4;}
	.st4{fill:#326FBB;}
	.st5{fill:#F2B796;}
	.st6{fill:#1EBAED;}
	.st7{fill:#B5ACA5;}
	.st8{fill:#3C9BD3;}
	.st9{fill:#F8DC72;}
	.st10{fill:#CEA89F;}
	.st11{fill:url(#SVGID_1_);}
	.st12{fill:#36427F;}
	.st13{fill:url(#SVGID_00000005257812999302080160000003045614737227775924_);}
	.st14{fill:#8BCAE3;}
</style>
<path class="st0" d="M650.4,157.2c4.1-12.7,11.4-22.1,23.5-28.2c11.4-5.8,24.2-6.7,36.3-2.8c12.1,3.9,22.8,13,28.5,24.4
	c6.1,12.3,5.2,25.4,5.2,38.7l-0.2,26c23.9,6.6,42.8,19.2,55.3,41.1c4.7,8.3,7.5,16.9,9.8,26.1c9-0.4,18-0.4,27-0.4
	c18.3-0.1,34.8-0.4,49.1,12.8c9.3,8.6,14.8,20.5,15.2,33.2c0.1,4.4-0.5,8.7-1.3,13c2.1,3.2,1.1,9.8,0.3,13.5
	c-2.6,11.9-9.7,22.6-19.5,29.6c10.7,8.1,18.3,19.2,20.2,32.7c0.8,5.5,0.3,10.6-0.6,16.1c2.3,6-0.5,16.2-3,21.9
	c-3.8,8.5-9.4,14.2-16.5,20.1c10.5,7.6,17.6,16.7,19.7,29.7c1,6.1,0.7,12.3-0.2,18.4c2.1,3.6,0.9,10.9-0.1,14.8
	c-2.8,10.6-10.2,22-19.5,28c10.9,8.1,18.2,18.2,20.2,31.8c0.9,6.1,0.3,11.8-0.6,17.8c2.5,5.4-0.7,16.4-2.6,21.7
	c-3.3,8.9-8.4,15.8-14.6,22.8c10.2,9,16.9,19.3,17.8,33.2c0.4,6.4-0.8,12.1-2.2,18.3l-1.4,3.8c-5.9,11.8-14.8,21.3-27.6,25.5
	c-10.7,3.6-46.8,2.5-59.4,1.8c-7.6,26.9-21.4,43.9-46,57.6c-6.3,3.5-13.1,5.8-19.4,9.1c-1.1,7.3,0,15.5,0,22.9
	c0.2,14-0.2,22.8-4.6,36.3c-5.1,11.4-13.3,20.4-24.8,25.4c-11.2,4.9-23.9,5.7-35.4,1.1c-15.2-6-22.4-17.1-28.7-31.4
	c-0.3,0.9-0.7,1.8-1.1,2.7c-5.4,12.7-14.2,23.7-27.3,29c-11.2,4.5-24.8,4.3-36-0.5c-13.7-5.9-22.2-17.3-27.6-30.8
	c-0.8,1.9-1.5,3.8-2.4,5.7c-5.4,11.8-14.9,21.3-27.2,25.8c-11.6,4.2-25.2,3.7-36.3-1.5c-13.5-6.4-21.7-18.2-26.7-31.9
	c-1.1,2.6-2.1,5.3-3.3,7.9c-5.4,11.5-15.7,21.7-27.8,26c-11.7,4.1-24.9,3.6-36-2c-14.2-7-20.8-18.9-25.7-33.4
	c-1.9,6.6-4.8,13-8.8,18.6c-7,9.9-17.7,16.5-29.7,18.4c-12.2,2-24.4-1.3-34.2-8.6c-11.8-8.7-17.8-21.2-20-35.4
	c0.8-6.2,0.2-13.2,0.1-19.4l0-12.5l0-12.8c-8.2-2-16.1-5.2-23.4-9.4c-21.5-12.3-34.7-31.7-41.1-55.3c-9.9-0.1-19.8,0.2-29.7,0.3
	c-16.4,0.1-30.9,0.6-44.6-9.8c-10.8-8.2-16.6-19.3-18.3-32.7c-0.1-17.6,2.8-28.2,15.3-40.9c-2.6-1.7-5-4.2-6.9-6.6
	c-7.5-9.5-12.4-27.6-10.2-39.6c0.2-1.3,0.7-1.6,1.8-2.2c0.1-3.8-0.5-7.5-0.2-11.4c0.9-14.1,6.9-24.3,17.4-33.6
	c-6.3-4.5-10.9-9.4-14.5-16.4c-4-7.8-6.5-22.3-3.8-30.7l0.9-0.3c-0.4-3-0.8-6.1-0.7-9.1c0.3-13.4,6.5-24.7,16-33.8
	c-7.8-4.9-13.2-14.7-15.3-23.4c-1.4-6-3.4-18.9,0-24.4c-0.3-3.7-0.5-7.2-0.1-10.9c1.5-14.5,8.7-25,19.7-34.1
	c-8.5-5.9-12.8-10.6-17.3-19.9c-3.6-7.4-5.9-22.7-3.2-30.6l0.9-0.4c-0.1-1.8-0.3-3.5-0.3-5.3c0-12.2,4.4-22.8,13.1-31.4
	c15-15,30.4-14.5,50.1-14.5l30.1,0.1c2-8.9,4.9-17.6,9.5-25.6c11.4-19.8,29.7-34.5,51.8-40.5c-0.3-10.1-2.4-40,1.7-47.4
	c0.6-1.1,0.8-1.1,1.9-1.5l0.2-0.7c0.9-4,1.3-8,2.5-12c2.9-9.8,10.4-18.6,18.9-24c10.1-6.5,23-8.5,34.7-5.9
	c12.1,2.7,23.2,10.3,29.8,20.8c3.2,5.1,5.2,10.7,6.2,16.6c4.7-14.1,11.4-26.2,25.2-33.2c11.5-5.8,24.2-6.9,36.5-2.8
	c12.4,4.1,22.4,12.8,28.2,24.5c1.1,2.3,2.1,4.7,3.1,7.1c3.3-12.1,11-21.9,21.9-28.2c10.8-6.1,24.4-7.8,36.3-4.5
	c12,3.4,23.2,11.8,29.3,22.8c2.2,4,3.5,8,4.6,12.4c4.8-13.9,11.4-24.9,25.1-31.6c11.6-5.6,24.7-6.7,36.9-2.5
	c12.2,4.3,22.3,13.4,27.7,25.1C649,153.5,649.7,155.3,650.4,157.2z"/>
<path class="st1" d="M664.3,228.1l0.2-40.1c0-8.2-0.8-17.4,1-25.4c1.1-5.1,3.7-10.2,7.2-14c5.9-6.3,14.1-9.4,22.6-9.5
	c8.7-0.1,17,3.9,23.2,9.9c3.6,3.5,6.6,8,7.9,13c2.3,8.5,1.1,19.4,1.1,28.3l0.1,37.8c14.4,1,28.4,5.8,39.9,14.7
	c18.1,14.1,25.4,33.1,28.1,55.2l36.9,0.1c8.9,0,18.6-1.1,27.3,0.8c5.9,1.3,11.4,4,15.8,8.3c5.9,5.8,8.8,14.1,8.9,22.3
	c0.1,8.3-3.1,16.2-9,22.1c-4.1,4-9.1,7-14.6,8.4c-8.6,2.2-18.5,1.3-27.4,1.3l-37.6,0.2c0.5,5,0.3,10.2,0.3,15.3
	c15.5,3.8,30.2,9.6,45.5,13.8c13.1,0,23.6-0.1,33.4,9.7c6,6,9.6,13.9,9.5,22.4c0,8.2-3.2,15.9-9.2,21.7c-4,3.9-9,6.6-14.4,8
	c-9.1,2.3-19.4,1.3-28.7,1.3l-36.7,0l0,9.7c8.8,2.1,38.3,13.5,45,18.8c13.7,0.3,26.5-1.1,36.7,10c5.8,6.3,8.2,14.4,7.6,22.8
	c-0.6,8.4-4.2,16.1-10.7,21.6c-3.6,3.1-8,5.4-12.7,6.4c-8.2,1.8-17.3,1.1-25.6,1.1c-13.4,0-26.7-0.2-40.1,0
	c0.3,3.6,0.3,7.1,0.3,10.7c13.2,5.1,27,8.4,40.4,12.6c5.3,1.7,10.4,3.9,15.6,5.8c0.1,0,0.2,0.1,0.3,0.2c9.4,0.2,17.9,3.1,24.6,10
	c5.6,5.9,8.5,13.8,8.2,21.8c-0.3,8.6-4.3,16.9-10.7,22.7c-3.8,3.4-8.4,5.8-13.3,7c-9.1,2.1-19.6,1.1-28.9,1l-36.8,0l0,20.7
	c5.2,2,18.7,5.8,22.1,8.9l22.3,0c13.4,0,26-0.7,36.2,9.7c5.8,5.9,8.8,13.6,8.6,21.8c-0.2,8.6-3.8,16.9-10.2,22.8
	c-3.7,3.4-8.2,5.9-13.2,7.1c-7.9,1.9-17.1,1.1-25.2,1.1c-13.4,0-26.8-0.2-40.2,0c-3.5,24.1-11.4,38.6-31.2,53.3
	c-11.4,8.5-23.3,13.4-37.5,14.3l0.1,35.9c0,8.9,1,19.1-1.2,27.7c-1.4,5.5-4.2,10.6-8.3,14.6c-6,6-14.4,9.3-22.8,9.2
	c-8-0.1-15.7-3.4-21.2-9.1c-5.8-6-8.4-13.6-8.9-21.8c-1-4.5-0.5-10.1-0.5-14.7l0-26.9l-27-0.1c0,6.2,0.3,12.5-0.4,18.6
	c-0.2,16.4,2.6,32.9-10.3,45.4c-6.1,5.9-14.4,9.4-23,9.2c-8.6-0.2-16.7-4.2-22.5-10.4c-9.5-10-8.7-21.3-8.7-34.2
	c-0.6-9.5-0.2-19.2-0.1-28.7H544l0.1,24.3c0,14.4,1.2,29-10,40.1c-5.7,5.7-13.7,8.7-21.8,8.5c-8.3-0.1-16.5-3.6-22.2-9.7
	c-5.4-5.8-8-13.3-8.1-21.2c-0.9-4.8-0.3-10.5-0.3-15.4l0-26.2c-10.3-0.4-20.8-0.2-31.1,0l0,25.8c0,13.6,1.4,26.7-8.9,37.3
	c-5.8,6-14,9.6-22.4,9.6c-8.1,0-16.5-3.2-22.2-9c-10.4-10.5-9-24.1-9-37.7l0.1-25.8l-29.6-0.1c-0.1,2.7-0.2,5.4-0.5,8
	c-0.1,7.3,0,14.5,0,21.8c0.1,12.4,0.3,23.5-9.1,33c-5.7,5.8-13.5,9.2-21.7,9.2c-8.3,0-16.1-3.4-21.9-9.2c-4-4-6.9-9.1-8.2-14.7
	c-1.8-7.9-0.8-17.1-0.8-25.2l-0.1-37.8c-15.8-2.1-28.5-5.8-41.2-16c-16.6-13.5-24.6-30-26.9-51.1l-39.3-0.1c-8.5,0-18,0.9-26.3-1.1
	c-5.4-1.3-10.3-4.1-14.4-7.9c-6.5-6.1-9.7-14.6-9.9-23.4c-0.1-8.2,3.1-16.1,8.9-22c4-4,9-6.9,14.5-8.3c9.2-2.3,20-1.2,29.5-1.1
	c12.4,0.1,24.8,0.2,37.2,0.1c1.4-6,0.4-22.3,0.3-29.4l-19.2,0c-8.3-0.1-16.6,0-24.9,0.1c-13.5,0-26.7,1.2-37.2-9.1
	c-6-5.9-9.3-14.3-9.2-22.7c0-8.1,3.1-15.9,8.8-21.6c4.1-4.1,9.4-6.9,15-8.3c7.8-1.9,17.1-1,25.1-1.1l41.9-0.1c0.2-9.9,0-19.7,0-29.6
	c-10.5-0.2-21-0.4-31.5-0.3c-10.3,0.1-25.7,1.6-35.5-0.6c-5.5-1.2-11.2-4.1-15.3-8c-5.8-5.5-8.4-13.4-8.5-21.2
	c-0.2-8.3,2.1-16.3,8-22.3c4.2-4.3,9.7-7.2,15.5-8.6c8.7-2.1,18.8-1.1,27.7-1.1l39.4,0l0.1-28.4l-43.2,0c-7.2,0-15.5,0.9-22.6-0.5
	c-4.8-0.9-9.6-3.1-13.5-6.1c-6.3-4.9-10.4-12.1-11.3-20.1c-0.9-8.2,1.8-16.9,6.9-23.3c5.9-7.4,13.7-10.9,23-12.1
	c-1.2-4-1.4-8.8-0.9-12.9c4.1-2.2,52.2-1.8,61.5-2.3l0-15.2c-13.2-0.3-26.4-0.2-39.6-0.1c-8.7,0-18.4,1.1-26.9-0.9
	c-5.6-1.3-10.8-4.2-14.9-8.2c-6.1-5.8-9.2-14-9.2-22.3c-0.1-7.9,2.7-15.5,8.3-21.1c4.3-4.3,9.9-7.4,15.9-8.8c8.5-2,18.3-0.9,27-0.9
	l39.5,0c0.5-16.2,6.6-31.4,16.7-43.8c12.8-15.8,30.7-23.9,50.6-26l-0.1-38.3c0-8.8-1.1-18.9,1.1-27.5c1.3-5.3,4-10.2,7.9-14
	c5.9-6,14-9,22.3-9.1c8.2,0,15.9,3,21.7,8.8c3.7,3.8,6.6,8.5,8,13.6c2.6,9,1.5,19.9,1.6,29.1l0,36.9c9.7,0.1,19.4,0.1,29,0.1
	l0.3-33.1c0-15.5-2.7-33.8,8.9-46c6-6.3,14.2-9.1,22.7-9.3c8.2-0.2,16.1,3,21.9,8.7c12.6,12.4,10,29.3,10,45.5l-0.1,34.4l29.2,0
	l0.2-40.7c0-8.3-0.8-17.8,1.1-25.9c1.1-4.6,3.4-8.8,6.6-12.3c5.8-6.3,14.3-9.7,22.8-9.9c8.3-0.2,16.2,2.5,22.2,8.3
	c4.1,4,7,9.1,8.4,14.6c2.4,9.1,1.4,19.7,1.4,29l0.1,36.9l29.8,0l0.2-40c0-7.9-0.9-17,0.9-24.7c1.3-5.7,4.1-10.9,8.2-15.1
	c6-6.1,14.5-8.7,22.9-8.7c8.3,0,16.2,3.4,22,9.2c3.6,3.6,6.5,8.2,7.8,13.2c1.9,7.7,0.7,17,0.6,25l0,41.2L664.3,228.1z"/>
<path class="st2" d="M795.5,656.7c5.2,2,18.7,5.8,22.1,8.9l-22.1,0L795.5,656.7z"/>
<path class="st3" d="M838,406.5c8.4-0.1,17.2-1.8,24.6,3c-0.1,3-0.7,5.3-2.9,7.4c-3.2,3.1-8.2,3.5-12.5,3.3
	c-3.1-0.2-6.2-0.6-9.3-1.3L838,406.5z"/>
<path class="st3" d="M312.6,168.1c0.3-2.7,1.3-5.2,2.9-7.3c2.5-3.4,6.5-5.7,10.7-6.2c4.8-0.5,8.2,1.1,12,4c-1,4.9-2.6,8-7,10.8
	c-3.3,2.1-7.4,3.2-11.2,2.3C318,171.2,313.8,169.6,312.6,168.1z"/>
<path class="st4" d="M496.8,840.5c0.3,3.5,0.3,7,0.3,10.4l0.4,0.3c5.9,3.9,10.2,9.2,18.2,7.5c4.5-1,8.1-4.4,10.5-8.3
	c0.9-1.5,1.7-3.1,2.4-4.7c0.2,2.1,0.4,4.2,0.3,6.3c-0.3,4.9-2.1,9.7-5.8,13.1c-3.2,2.9-7.6,4.4-11.9,3.9c-4.2-0.4-8-2.6-10.6-6
	C496,857,495.7,847.7,496.8,840.5z"/>
<path class="st3" d="M837.8,498.1c8.3-0.2,18.9-2,25.8,3.4c-0.2,3.1-0.5,6.2-2.9,8.4c-4.8,4.2-16.6,2.2-22.8,2.1
	C837.7,507.4,837.8,502.8,837.8,498.1z"/>
<path class="st2" d="M795.8,361.4c0.5,5,0.3,10.2,0.3,15.3c15.5,3.8,30.2,9.6,45.5,13.8l-45.8,0.1
	C795.6,381.2,794.5,370.6,795.8,361.4z"/>
<path class="st3" d="M838,314.4c8.9-0.2,17.3-2,25.3,3c-0.8,3.9-1.9,7.3-5.3,9.6c-5.2,3.5-13.8,2.5-20,2.5L838,314.4z"/>
<path class="st0" d="M195,681.9l26.6-0.1c0.5,2-0.5,5-1.6,6.7c-2.7,4.1-7.1,6.8-11.1,9.4c-4.6,0.6-9.1,0.6-13.7,0.6
	C194.8,693,195,687.4,195,681.9z"/>
<path class="st3" d="M838.6,682.5c4.4-0.6,9.4-0.7,13.9-0.6c5.7,0.1,9.3,1.3,13.3,5.4c-0.8,3.4-1.7,6.4-4.9,8.4
	c-5.6,3.4-16,1.3-22.4,1.4C838.5,692.2,838.5,687.3,838.6,682.5z"/>
<path class="st3" d="M156.9,595.9c3.1-3.9,6.2-5.9,11.2-6.4c5.8-0.7,12-0.1,17.8,0l0.1,10.1c-2.9,1.6-6,3.2-9.1,4.2
	c-4.4,1.5-9.6,2.1-13.8-0.1C159.8,602,158,599.3,156.9,595.9z"/>
<path class="st4" d="M710.7,839.9l1.5,0.3c1.7,2.8,0.6,12.2-0.2,15.5c-1.2,4.7-4,9-8.3,11.4c-3.8,2.1-8.4,2.5-12.5,1.2
	c-4.2-1.3-7.5-4.4-9.4-8.3c-2.1-4.3-2.1-8.6-1.8-13.2c3.3,4.7,7.2,9.7,13.1,10.9c3.9,0.8,7.8-0.4,11-2.6c3.5-2.5,7.1-7.2,7.5-11.6
	C711.7,841.8,711.7,841.2,710.7,839.9z"/>
<path class="st4" d="M588.4,842.9c2.6,6.2,5.4,11.9,11.9,14.7c3.3,1.4,6.7,1.5,10,0.1c6.2-2.7,6.8-7.2,10.8-11.6
	c0.3,1.6,0.3,3.2,0.3,4.8c0,5.3-1.4,10.4-5.4,14.1c-3.3,3.2-7.9,4.8-12.6,4.6c-4.3-0.2-8.2-2.3-11-5.6
	C587.5,857.8,587.8,850.3,588.4,842.9z"/>
<path class="st5" d="M589.7,198.7c0.7,5.4,0.3,11.1,0.3,16.5c7.6,2.3,15.8,2.5,22.9-1.3c2.6-1.4,4.6-3.6,7.1-5l0,18.6l-30.3,0
	C589.6,218,589.4,208.4,589.7,198.7z"/>
<path class="st4" d="M338.2,840.5c1.6,0,3.5-0.4,4.9,0.6c1.7,3.7,0.5,13.4-0.8,17c-1.5,4.2-4.6,7.6-8.7,9.4
	c-3.8,1.7-8.3,1.9-12.1,0.2c-4.1-1.8-7.3-5.6-8.9-9.7c-0.5-1.4-0.9-2.8-1.3-4.3c2.7,2.4,5.3,4.1,8.9,4.6c3.8,0.5,7.7-0.6,10.7-3
	C335.7,851.6,337.5,846.2,338.2,840.5z"/>
<path class="st4" d="M430.6,840.5l5.5,0.1c0.2,8.2,1.3,17.2-5,23.6c-3.3,3.4-7.9,5.1-12.6,5c-4.4-0.1-8.5-1.9-11.5-5.2
	c-2.3-2.5-3.3-5.4-4.2-8.6c3.5,1.5,6.7,2.8,10.6,3.1c4.3,0.4,8.6-0.5,11.8-3.5C429.4,851.3,430.3,845.8,430.6,840.5z"/>
<path class="st6" d="M311.2,840.6c9-0.3,18-0.1,27-0.1c-0.7,5.8-2.5,11.1-7.2,14.9c-3,2.4-6.9,3.5-10.7,3c-3.7-0.5-6.2-2.2-8.9-4.6
	C310.9,849.3,311.1,845,311.2,840.6z"/>
<path class="st3" d="M156.4,689.5c2.7-4.1,5.7-6.5,10.7-7.5c5.8-1.1,12.5-0.3,18.4-0.3l0,14.7c-6.6,0-13.7,3.1-20.3,1.2
	C160.7,696.3,158.5,693.3,156.4,689.5z"/>
<path class="st5" d="M680.1,211.2c0.1,0.8,0.2,2.3,0.7,3c1.9,2.2,5.9,2.8,8.7,2.8c10.7,0,15.2-2.3,22.6-9.7l-0.1,20.3l-31.8,0
	L680.1,211.2z"/>
<path class="st2" d="M795.5,422.5c0.2,0.8,0.5,1.5,0.8,2.3c7.5,1,23.3,0.6,31.2-0.4c1-0.7,1-2.4,1.3-3.6l-0.2,17.1l-33.2,0
	L795.5,422.5z"/>
<path class="st5" d="M312.1,203.7c0.5,3.4,0.4,6.9,0.4,10.4c6.8,2.5,14.5,3.6,21.3,0.6c4.3-1.9,6.8-4.9,9.6-8.4l-0.1,21.7l-31.3,0
	C312.2,220,312,211.9,312.1,203.7z"/>
<path class="st5" d="M436,207.3l0,20.7l-31.5,0l0-13.6c3.6,0.8,7.4,1.4,11.1,1.6C424.6,216.5,429.7,213.1,436,207.3z"/>
<path class="st7" d="M358.4,796.5c6.8,0,22.9-1.2,28.6,0.9c2.1,3,1.2,10.1,1.1,13.8l-29.6-0.1c-0.1,2.7-0.2,5.4-0.5,8
	C357.6,811.7,358.4,803.9,358.4,796.5z"/>
<path class="st6" d="M402.8,840.5l27.9,0c-0.3,5.3-1.3,10.8-5.4,14.5c-3.2,3-7.6,3.8-11.8,3.5c-3.9-0.3-7.1-1.6-10.6-3.1
	C402.6,850.4,402.8,845.4,402.8,840.5z"/>
<path class="st2" d="M795.5,331.5c11,0,22.1-0.1,33.1,0.2l0,13.2c-11,0-22,0-33.1-0.2L795.5,331.5z"/>
<path class="st7" d="M637,795.7l27.8,0.1c0,18.7,1,37.8,0.1,56.4c-1-4.5-0.5-10.1-0.5-14.7l0-26.9l-27-0.1c0,6.2,0.3,12.5-0.4,18.6
	C636.8,818,637,806.8,637,795.7z"/>
<path class="st5" d="M528.3,196c0.7,10.5,0.1,21.3-0.1,31.8l-31.2,0l0-14.2c4.6,2.3,10.7,2.3,15.7,1.7c7-0.8,10.9-2.7,15.3-8.2
	C528,203.3,528.1,199.7,528.3,196z"/>
<path class="st7" d="M544,795.5l28.8,0c0,14.5,0.8,29.2-0.2,43.6c-0.6-9.5-0.2-19.2-0.1-28.7H544L544,795.5z"/>
<path class="st8" d="M865.8,687.3c2.8,4.5,3.8,8.7,2.5,13.9c-0.9,3.6-2.8,6.6-6,8.6c-6.3,3.8-16.6,2.3-23.8,2.4c0-5,0-10.1,0-15.1
	c6.4-0.1,16.8,2,22.4-1.4C864,693.7,864.9,690.7,865.8,687.3z"/>
<path class="st6" d="M679.8,840c10.3,0,20.6,0.2,30.9-0.1c1,1.3,1.1,1.9,0.9,3.5c-0.4,4.4-4.1,9.1-7.5,11.6c-3.2,2.3-7.1,3.4-11,2.6
	c-6-1.2-9.8-6.2-13.1-10.9L679.8,840z"/>
<path class="st6" d="M588.4,842.9l0.2-2c2.5-1.4,27.8-0.5,32.4-0.5l0.1,5.6c-4,4.4-4.7,8.9-10.8,11.6c-3.3,1.4-6.8,1.3-10-0.1
	C593.8,854.9,591,849.1,588.4,842.9z"/>
<path class="st7" d="M450.5,810.9c0-3.1-1-10.7,1.4-13.1c2.2-2.1,22-1.8,26.1-1.3c0.9,0.1,1.6,0.4,2.4,0.8
	c2.4,4.2,1.9,47.4,1.4,55.2c-0.9-4.8-0.3-10.5-0.3-15.4l0-26.2C471.3,810.6,460.8,810.7,450.5,810.9z"/>
<path class="st0" d="M195.8,589.1c10.8-0.2,21.6,0,32.4,0.2c-2.3,5.7-8,13.9-13.9,16.3c-5.3,2.2-12.8,1.1-18.4,0.9L195.8,589.1z"/>
<path class="st2" d="M795.5,463.2c8.8,2.1,38.3,13.5,45,18.8l-44.9-0.1C795.4,475.7,795.5,469.5,795.5,463.2z"/>
<path class="st8" d="M156.4,689.5c2.2,3.9,4.4,6.8,8.8,8.2c6.5,1.9,13.7-1.1,20.3-1.2l-0.1,16.9c-6.9,0.1-16,1.2-22.4-1.8
	c-4-1.9-6.7-5.3-8-9.5C153.6,697.8,154.4,693.3,156.4,689.5z"/>
<path class="st0" d="M195.5,497.1c7.7,0,26.1-1,33,0.3l0.5,1c-3.3,6.2-6.5,12.6-13.9,14.7c-6,1.7-13.4,0.4-19.6,0.3L195.5,497.1z"/>
<path class="st5" d="M795.6,528.2c0-9.8-0.7-20.1,0.1-29.9l0.3,15.7c10.7-0.1,21.3-0.2,32,0c0-2.2-0.1-4.6,0.4-6.7
	c0.3,6.9,0,14-0.1,21C817.4,528.1,806.5,528.2,795.6,528.2z"/>
<path class="st6" d="M496.8,840.5c9.8-0.1,21.8-1.1,31.3,0.2c0.6,1.5,0.5,3.4,0.5,5c-0.7,1.6-1.4,3.2-2.4,4.7
	c-2.4,3.9-6,7.3-10.5,8.3c-8,1.7-12.3-3.6-18.2-7.5l-0.4-0.3C497.1,847.4,497.1,843.9,496.8,840.5z"/>
<path class="st5" d="M795.6,597.7c0.3,2.3,0.4,4.5,0.4,6.8c4.9,0.1,29.4,1.4,32.1,0l0.3-0.5l-0.2,15.4l-32.5-0.1
	C795.7,612.2,795.6,605,795.6,597.7z"/>
<path class="st0" d="M311.1,811.9c10.6-0.4,21.2,0,31.8,0c0,4.7-0.3,9.6,0.2,14.2l-0.4,0.6c-6.7,1.2-24,0.2-31.7,0.2L311.1,811.9z"
	/>
<path class="st7" d="M496.1,816.1c-0.1-3.8-0.6-16.8,1.5-19.3c5.2-2.3,24.1-1,30.9-1l0.1,14.9l-31.9,0
	C496.5,812.5,496.4,814.3,496.1,816.1z"/>
<path class="st0" d="M196,406.5c10.9-0.2,21.9-0.2,32.8,0c-0.8,5.1-5.5,11-9.6,14c-6.6,4.8-15.4,4.1-23.2,3.7L196,406.5z"/>
<path class="st0" d="M795.6,589.8l32.9,0.1l0,14.2l-0.3,0.5c-2.7,1.4-27.2,0.1-32.1,0c0-2.3-0.1-4.5-0.4-6.8L795.6,589.8z"/>
<path class="st0" d="M795.5,682c11.1,0,22.2-0.1,33.4,0c0,4.9,0.2,9.8-0.1,14.7c-10.9,0.6-22.2,0.1-33.2-0.1L795.5,682z"/>
<path class="st7" d="M402.1,816.8c-0.1-4-0.5-16.8,1.6-19.3c5.7-2.2,25.3-2,30.8,0.2c1.7,2,1.9,22.1,1.4,25.5
	c-0.1,0.3-0.1,0.7-0.2,1c-0.3-4.2-0.2-8.5-0.2-12.8c-8.1-0.2-25.2-1-32.3,0.1C402.4,812.9,402.3,815.1,402.1,816.8z"/>
<path class="st7" d="M311.1,796.5l32.2,0c0,9.7,0.8,20-0.3,29.6c-0.5-4.7-0.2-9.5-0.2-14.2c-10.6-0.1-21.3-0.4-31.8,0
	C311.1,806.8,311.2,801.6,311.1,796.5z"/>
<path class="st0" d="M795.7,498.3l32.7,0.1l0,8.9c-0.5,2.2-0.4,4.5-0.4,6.7c-10.7-0.2-21.3-0.1-32,0L795.7,498.3z"/>
<path class="st8" d="M156.9,595.9c1.1,3.4,2.9,6.1,6.2,7.8c4.2,2.2,9.5,1.6,13.8,0.1c3.2-1.1,6.2-2.6,9.1-4.2
	c0.1,6.9,0.1,13.8,0.1,20.7c-7.3,0.1-17.4,1.4-24.1-2.3c-4-2.2-6.3-5.9-7.3-10.3C153.6,603.3,154.6,599.6,156.9,595.9z"/>
<path class="st8" d="M863.6,501.6c3.4,3.4,5.8,6.8,5.7,11.9c-0.1,3.9-1.8,7.7-4.7,10.3c-6.8,6.3-18.1,4.1-26.6,4.2
	c0-5.3,0.1-10.7-0.1-16c6.2,0.1,18.1,2.1,22.8-2.1C863.2,507.8,863.4,504.7,863.6,501.6z"/>
<path class="st0" d="M196,313.9c6,0,28.4-1,32.7,0.5l0.4,1.4c-2.6,5.9-6.4,12.4-12.7,14.7c-6.1,2.2-14,1.4-20.4,1.4L196,313.9z"/>
<path class="st9" d="M795.5,696.6c11,0.2,22.3,0.7,33.2,0.1c-0.2,5.1-0.1,10.3-0.1,15.5l-33.1-0.1L795.5,696.6z"/>
<path class="st10" d="M196,331.9c6.4,0,14.4,0.9,20.4-1.4c6.3-2.3,10.1-8.8,12.7-14.7c-0.5,9.6-0.1,19.3-0.2,28.9
	c-11,0.1-22,0.3-33,0L196,331.9z"/>
<path class="st7" d="M588.5,795.7l33.2,0c0,7.1,1.4,25.7,0,31.4c-0.7-5-0.2-10.9-0.2-16l-32.9-0.1L588.5,795.7z"/>
<path class="st6" d="M863.3,317.3c3.3,3,5.5,6.3,5.7,10.9c0.2,4.3-0.9,8.8-3.9,12c-6.5,6.7-18.4,5-27.1,4.9l0-15.6
	c6.2,0,14.7,1,20-2.5C861.4,324.7,862.5,321.2,863.3,317.3z"/>
<path class="st0" d="M496.6,810.7l31.9,0l0,16.4c-7,0-25.3,1.4-30.8-1.5c-2-2.3-1.8-4.4-1.7-7.3l0.1-2.2
	C496.4,814.3,496.5,812.5,496.6,810.7z"/>
<path class="st0" d="M588.5,811l32.9,0.1c0,5.1-0.5,11,0.2,16c-11.1-0.1-22.1,0-33.2,0L588.5,811z"/>
<path class="st0" d="M402.1,816.8c0.2-1.6,0.3-3.8,1.1-5.3c7.1-1.1,24.2-0.3,32.3-0.1c0,4.2,0,8.5,0.2,12.8
	c-0.8,1.2-1.9,2.2-3.3,2.7c-4.3,1.7-24.8,1.3-28.8-0.9C401.5,823.5,402.1,819.8,402.1,816.8z"/>
<path class="st10" d="M228.8,406.4l0,31.1l-32.8,0l0-13.3c7.8,0.4,16.6,1.1,23.2-3.7C223.3,417.5,228,411.6,228.8,406.4z"/>
<path class="st10" d="M195.5,513.4c6.2,0.1,13.6,1.4,19.6-0.3c7.3-2.1,10.6-8.5,13.9-14.7c0.3,9.8,0.4,19.6,0.1,29.4l-33.5-0.2
	L195.5,513.4z"/>
<path class="st0" d="M497,196.1c10.4-0.2,20.9,0,31.3,0c-0.2,3.7-0.3,7.3-0.3,11c-4.4,5.5-8.3,7.4-15.3,8.2
	c-5,0.6-11.1,0.6-15.7-1.7L497,196.1z"/>
<path class="st2" d="M795.7,573.5c-0.1-9.4-1.1-20.4,0.1-29.5c0.3,3.6,0.3,7.1,0.3,10.7c13.2,5.1,27,8.4,40.4,12.6
	c5.3,1.7,10.4,3.9,15.6,5.8c0.1,0,0.2,0.1,0.3,0.2C833.5,573.6,814.6,573.5,795.7,573.5z"/>
<path class="st0" d="M795.5,408l33.3,0l0,12.8c-0.3,1.2-0.3,2.9-1.3,3.6c-7.9,1-23.7,1.4-31.2,0.4c-0.3-0.8-0.6-1.5-0.8-2.3
	L795.5,408z"/>
<path class="st8" d="M862.6,409.5c3.7,3.2,6,6.9,6.3,11.8c0.2,4.4-1.4,8.6-4.5,11.7c-6.7,6.8-17.8,4.7-26.5,4.8c0-6.3-0.1-12.7,0-19
	c3,0.7,6.2,1.1,9.3,1.3c4.3,0.3,9.2-0.1,12.5-3.3C861.9,414.8,862.5,412.5,862.6,409.5z"/>
<path class="st10" d="M228.2,589.3c1.2,1.1,0.8,2.9,0.9,4.4c0.1,8.8,0,17.7-0.1,26.6c-11,0-22.1,0.1-33.1-0.1l0-13.7
	c5.7,0.2,13.1,1.2,18.4-0.9C220.2,603.2,225.9,595,228.2,589.3z"/>
<path class="st0" d="M404.6,196l31.4,0.1l0,11.2c-6.4,5.8-11.5,9.2-20.4,8.7c-3.7-0.2-7.5-0.7-11.1-1.6L404.6,196z"/>
<path class="st0" d="M312.1,196l31.4,0l0,10.4c-2.9,3.4-5.4,6.5-9.6,8.4c-6.9,3-14.5,1.9-21.3-0.6c0-3.5,0.1-6.9-0.4-10.4L312.1,196
	z"/>
<path class="st0" d="M589.7,198.7l0-2c1.8-1.7,25.9-0.8,30.4-0.8l0,13.1c-2.5,1.4-4.5,3.6-7.1,5c-7.1,3.8-15.3,3.6-22.9,1.3
	C590,209.8,590.3,204.2,589.7,198.7z"/>
<path class="st0" d="M795.5,313.9c11,0,22.1-0.2,33.1,0l0,17.7c-11-0.3-22.1-0.2-33.1-0.2L795.5,313.9z"/>
<path class="st6" d="M338.2,158.6c7.1,7.6,4.8,19.4,4.8,29.1l-30.5,0.1c0-6.5-0.2-13.2,0.1-19.7c1.2,1.6,5.4,3.1,7.4,3.6
	c3.8,0.9,8-0.2,11.2-2.3C335.6,166.6,337.3,163.5,338.2,158.6z"/>
<path class="st0" d="M680.1,196l32,0l0,11.2c-7.4,7.4-11.9,9.7-22.6,9.7c-2.8,0-6.7-0.6-8.7-2.8c-0.6-0.6-0.6-2.1-0.7-3L680.1,196z"
	/>
<path class="st2" d="M778.6,711.9c0.5,20.7-0.7,35.8-15.8,51.6c-2.3,2.4-4.7,4.7-7.4,6.6c-4,0.9-8.6,4.4-12.4,6.3
	c1.6-3.6,3.6-8.4,2.6-12.5c-0.3-1.3-0.4-1.6,0.2-2.8c0.3-0.4,0.1-0.2,0.6-0.6c15.2-11.9,19-20.7,27-37.6
	C775.1,719.4,776.2,715,778.6,711.9z"/>
<path class="st10" d="M221.6,681.8l7.1-0.2c1.3,10,0.3,21.7,0.3,31.8l-33.9-0.1c0-4.9,0.2-9.9,0-14.9c4.6,0,9.2,0,13.7-0.6
	c4-2.6,8.5-5.3,11.1-9.4C221.1,686.8,222.1,683.8,221.6,681.8z"/>
<path class="st2" d="M221.6,681.8l7.1-0.2c-0.6,5.5-0.3,11.1-0.2,16.6c-6.6,0.2-13.1,0.4-19.7-0.3c4-2.6,8.5-5.3,11.1-9.4
	C221.1,686.8,222.1,683.8,221.6,681.8z"/>
<path class="st8" d="M838.8,591.3c2.6-2.2,11.4-1.8,14.8-1.5c4.7,0.3,7.8,1.3,11.3,4.6c2.7,3.2,4.5,6.8,4.5,11
	c0,3.9-1.6,7.7-4.4,10.4c-6.2,6-18.4,3.9-26.5,3.9C838.5,610.6,837.5,600.4,838.8,591.3z"/>
<path class="st3" d="M838.8,591.3c2.6-2.2,11.4-1.8,14.8-1.5c4.7,0.3,7.8,1.3,11.3,4.6c-0.3,2.5-1.5,4.6-3.3,6.4
	c-5.3,5.2-16,3.6-22.8,3.3C838.8,599.9,838.9,595.6,838.8,591.3z"/>
<path class="st8" d="M154.8,507.4c0.9-2,1.8-3.8,3.3-5.4c6-6.6,17.1-4.5,25.2-4.7l2.2,0.3c1.5,2.4,0.6,25.6,0.6,30
	c-8.6,0.1-21.6,2-28.2-4.4c-3-2.9-3.9-6.7-3.9-10.8C154,510.7,154.3,509,154.8,507.4z"/>
<path class="st3" d="M154.8,507.4c0.9-2,1.8-3.8,3.3-5.4c6-6.6,17.1-4.5,25.2-4.7c-2.1,5.2-5.1,12.4-10.6,14.7
	c-3.9,1.6-8.6,0.4-12.2-1.4C158.5,509.7,156.8,508.3,154.8,507.4z"/>
<path class="st8" d="M156.2,414.5c0.6-1,1.4-2,2.1-2.9c6.5-7.3,17.4-4.2,26-5c0.2,0,0.4,0,0.5-0.1l1.2,0.7
	c1.3,8.3,0.3,21.3,0.3,29.9c-8.3,0.1-21.3,1.9-27.9-4.3c-2.8-2.7-4.3-6.8-4.4-10.7C154,419.4,154.9,417,156.2,414.5z"/>
<path class="st3" d="M156.2,414.5c0.6-1,1.4-2,2.1-2.9c6.5-7.3,17.4-4.2,26-5c0.2,0,0.4,0,0.5-0.1c-2.8,5.5-5.8,12.3-12.1,14.4
	c-3.8,1.3-8.4,1-12-0.9C158.4,418.9,157.1,417,156.2,414.5z"/>
<path class="st8" d="M155.9,321.7c0.8-1.5,1.9-2.9,3.1-4.1c6.1-5.7,17.8-3.8,25.5-3.6l1.4,0.3c1.4,5.1,0.3,23.6,0.2,30.1
	c-8.4,0.1-20.4,2.1-27-4.1c-3.2-3-5-7.2-5-11.5C154,326.3,154.7,324,155.9,321.7z"/>
<path class="st3" d="M155.9,321.7c0.8-1.5,1.9-2.9,3.1-4.1c6.1-5.7,17.8-3.8,25.5-3.6c-1.3,5.2-2,10.1-6.9,13.2
	c-3.5,2.2-8.1,2.4-12,1.3C161.3,327.4,158.2,325.4,155.9,321.7z"/>
<path class="st2" d="M168.6,390.9c-1.2-4-1.4-8.8-0.9-12.9c4.1-2.2,52.2-1.8,61.5-2.3l0,14.9C209.1,390.9,188.6,391.7,168.6,390.9z"
	/>
<path class="st6" d="M590.9,164.3c0.4-1.1,0.9-2.2,1.5-3.1c2.1-3.4,5.8-5.7,9.6-6.5c5.1-1,9,0.5,13.1,3.4c3.7,3.5,5.2,6.8,5.4,11.9
	c0.2,5.8-0.2,11.6-0.2,17.5l-29.9,0.1C590.3,180.2,589.4,171.5,590.9,164.3z"/>
<path class="st3" d="M590.9,164.3c0.4-1.1,0.9-2.2,1.5-3.1c2.1-3.4,5.8-5.7,9.6-6.5c5.1-1,9,0.5,13.1,3.4c0,3.6-0.5,6.2-3.1,8.8
	c-3.3,3.4-8.3,4.2-12.8,4.1c-0.5,0-1,0-1.5-0.1C594.3,169.1,592.8,167.6,590.9,164.3z"/>
<path class="st6" d="M405.3,165.9c0.1-0.1,0.1-0.3,0.2-0.4l0.4-0.7c0.4-0.9,0.8-1.8,1.3-2.6c2.3-3.6,6.5-6.6,10.7-7.5
	c3.8-0.8,7.4,0.4,10.6,2.5c3.5,2.2,5.6,5,6.6,9c1.6,6.5,0.5,14.9,0.4,21.7l-30.6-0.3C404.9,180.6,404.2,172.7,405.3,165.9z"/>
<path class="st3" d="M405.3,165.9c0.1-0.1,0.1-0.3,0.2-0.4l0.4-0.7c0.4-0.9,0.8-1.8,1.3-2.6c2.3-3.6,6.5-6.6,10.7-7.5
	c3.8-0.8,7.4,0.4,10.6,2.5c1.1,3,2.1,5.3,0.7,8.5c-1.1,2.4-3.1,4-5.6,4.8c-4.4,1.5-10.5,1-14.6-1.2
	C407.5,168.4,406.4,167.1,405.3,165.9z"/>
<path class="st6" d="M498.6,162.9c0.7-1.3,1.6-2.7,2.7-3.8c2.7-3,6.6-4.9,10.7-5c4.9-0.1,8.6,2,12.2,5.2c5.8,8.3,3.8,18.6,3.9,28.2
	l-31.1,0C496.9,180,495.5,169.6,498.6,162.9z"/>
<path class="st3" d="M498.6,162.9c0.7-1.3,1.6-2.7,2.7-3.8c2.7-3,6.6-4.9,10.7-5c4.9-0.1,8.6,2,12.2,5.2c-2.3,4.7-4.8,9-10,10.8
	c-3.2,1.1-6.6,0.9-9.6-0.6C501.6,167.9,500.1,165.8,498.6,162.9z"/>
<path class="st6" d="M680.7,167.2c0.2-1.4,0.7-2.9,1.3-4.2c1.8-3.8,5.4-6.9,9.4-8.2c4.3-1.3,8.5-0.7,12.4,1.5c4.2,2.8,6.7,6,7.8,11
	c1.3,6.3,0.4,13.7,0.4,20.2l-31.3,0C680.6,180.7,680.5,173.9,680.7,167.2z"/>
<path class="st3" d="M680.7,167.2c0.2-1.4,0.7-2.9,1.3-4.2c1.8-3.8,5.4-6.9,9.4-8.2c4.3-1.3,8.5-0.7,12.4,1.5c0.6,3.7,1,6.2-1.3,9.4
	c-2.1,2.9-5.5,4.4-8.9,4.9C688.5,171.4,684.9,169.7,680.7,167.2z"/>
<path class="st7" d="M679,795.6l34.2,0c0.1,7.6,1.2,22.4,0,29.5l-33.8-0.1C678.3,815.4,679.1,805.2,679,795.6z"/>
<path class="st0" d="M679.6,810.5l33.3,0.1c0,4.7-0.3,9.7,0.3,14.4l-33.8-0.1C679.8,820.2,679.6,815.3,679.6,810.5z"/>
<path class="st10" d="M245.9,737.8c0.1,0.2,0.3,0.4,0.4,0.6c1.2,1.5,1.8,3.9,2.5,5.7c2.6,6.7,5.7,14.4,11.5,19.1
	c2.1-3.8,10.5-2.8,11.9-6.7c-1-2.8-7.9-9.1-10.2-12.2l0.2-0.2c2.6,2.5,4.6,5.4,7,8c5.9,6.3,14.2,11.6,22.7,13.5
	c12.9,2.9,28,1.5,41.2,1.4l58.7,0.2l233,0.4c18.5,0,36.9,0,55.4,0.3c12.4,0.2,24.8,0.8,37.2,0.7c11.1-0.1,18.7-1.8,28.3-7.3
	c-0.5,1.2-0.5,1.5-0.2,2.8c1,4-1,8.8-2.6,12.5c3.8-1.9,8.3-5.5,12.4-6.3c-6.5,5.7-16.1,9.5-24.5,11c-6.8,1.2-14.1,0.8-21,0.8
	l-31.7,0.1l-119.8,0l-174.5-0.2l-54.8-0.1c-10.7,0-21.7,0.4-32.4-0.5c-10.4-0.9-20.5-4.2-29-10.2C257,763.5,248.1,751,245.9,737.8z"
	/>
<path class="st0" d="M244.9,297.3c0-8.8,3.4-18.7,7.8-26.2c8-13.7,21.2-22.5,36.4-26.3c9.9-2.5,20.5-1.8,30.6-1.8l31.3,0l111.8,0
	l174.4,0.1l57.2,0c10.6,0,21.5-0.5,32.1,0.3c9.3,0.7,18.3,3.5,26.3,8.4c13.7,8.3,21.2,21.2,24.9,36.4l-0.2,1.6l-0.8,0.3
	c-3.3-2.3-5.2-6.1-7.8-9.2c-8.8-10.4-21-19.1-34.5-22.1c-9.3-2.1-19.4-1.4-28.9-1.4l-37.2-0.1c-33.8-0.4-67.6,0-101.4,0.1l-129.4,0
	l-95.1,0l-24.2,0c-6.9,0-14-0.4-20.8,0.8c-17.3,2.9-31.4,14.6-41.2,28.8c-2.5,3.6-4.9,7.6-6.5,11.7c-0.8,2.1-1.2,4.5-2.3,6.5
	c-0.5,0.9-0.7,1.1-1.7,1.6l-0.7-0.2C245.2,303.4,245.2,300.3,244.9,297.3z"/>
<linearGradient id="SVGID_1_" gradientUnits="userSpaceOnUse" x1="424.661" y1="803.9379" x2="598.7628" y2="218.8671" gradientTransform="matrix(1 0 0 -1 0 1024)">
	<stop  offset="0" style="stop-color:#DBD2BF"/>
	<stop  offset="1" style="stop-color:#F2F6F9"/>
</linearGradient>
<path class="st11" d="M244.9,297.3c0.2,3.1,0.2,6.2,0.3,9.2l0.7,0.2c1-0.5,1.2-0.6,1.7-1.6c1.1-1.9,1.5-4.4,2.3-6.5
	c1.6-4.1,4-8.1,6.5-11.7c9.8-14.1,23.9-25.9,41.2-28.8c6.9-1.1,13.9-0.8,20.8-0.8l24.2,0l95.1,0l129.4,0
	c33.8-0.1,67.6-0.5,101.4-0.1l37.2,0.1c9.5,0,19.6-0.7,28.9,1.4c13.5,3,25.7,11.7,34.5,22.1c2.6,3,4.5,6.8,7.8,9.2l0.8-0.3l0.2-1.6
	c2.3,14.3,1.1,29.8,1.1,44.4l-0.2,82.7l0.3,184.3c0,37.4,0.2,74.8-0.4,112.2c-2.4,3.1-3.6,7.5-5.3,11.1c-8,16.9-11.8,25.7-27,37.6
	c-0.5,0.4-0.3,0.2-0.6,0.6c-9.6,5.5-17.3,7.2-28.3,7.3c-12.4,0.1-24.8-0.5-37.2-0.7c-18.5-0.3-36.9-0.3-55.4-0.3l-233-0.4l-58.7-0.2
	c-13.2,0-28.3,1.4-41.2-1.4c-8.5-1.9-16.8-7.2-22.7-13.5c-2.4-2.6-4.5-5.5-7-8l-0.2,0.2c2.3,3.2,9.2,9.5,10.2,12.2
	c-1.4,3.9-9.7,2.9-11.9,6.7c-5.8-4.7-9-12.4-11.5-19.1c-0.7-1.8-1.3-4.2-2.5-5.7c-0.1-0.2-0.3-0.4-0.4-0.6c-3-5.2-1.7-90-1.7-101.4
	l0.2-242.1l0.1-64.7C244.5,320,243.4,306.4,244.9,297.3z"/>
<path class="st1" d="M310.1,269.7c0.2,0,0.4-0.1,0.5-0.1c8.1-0.7,16.8-0.2,24.9-0.2l49,0l156.8,0l117.1,0.1l34.7,0
	c6.6,0,13.5-0.5,20,0.3c9.3,1.1,18.6,5.6,25.6,11.9c9.4,8.5,15.7,20.9,16.4,33.6c0.5,9.9,0.2,20,0.2,29.9l0,52.6l0.1,163.6
	l0.1,105.8l0,32.5c0,5.9,0.4,12.2-0.3,18.1c-1,8.8-5.3,17-11.2,23.5c-7.2,7.9-17.3,12.8-28,13.4L428.8,754l-81.8,0
	c-13.1,0-26.9,1.1-39.9-0.1c-7.2-0.7-13.7-3.2-19.6-7.6c-8.8-6.6-15.5-16.9-17.1-27.9c-1-6.8-0.5-14.1-0.5-21l0-32.6l-0.1-118.5
	l0.1-159.8l-0.1-48.6c0-9.1-0.6-18.5,0.2-27.5c0.8-8.8,4.2-17.2,9.5-24.2C287.2,276.3,297.7,271.3,310.1,269.7z"/>
<path class="st12" d="M317.9,281.2c12.5-1.2,29-0.2,41.9-0.2l83,0.1l255.1-0.1c12.9,0.1,23.9,2,33.3,11.5
	c5.6,5.7,10.1,13.9,11.1,21.9c0.7,5.7,0.4,11.6,0.3,17.4l0,24.3l0.3,86.4l-0.2,179.5c0,28.1,0.7,56.2,0.2,84.3
	c-0.2,10-2.2,19.4-9.8,26.6c-7,6.6-14.5,7.9-23.8,7.7l-269.7-1l-87.8,0.2l-24.5,0.3c-5.3,0.1-10.7,0.5-16,0
	c-6-0.5-11.6-2.9-16.3-6.7c-5.8-4.6-10-11.5-10.7-18.9c-0.7-7.2-0.3-14.6-0.3-21.8l0.1-37.1L283.8,529l0-145.7l-0.2-43.4
	c-0.1-8.1-0.5-16.5,0.2-24.6c0.6-8,2.9-14.6,8-20.8C298.6,286.3,307.4,282.1,317.9,281.2z"/>
<path class="st1" d="M329.4,289.7c32-0.6,64,0.1,96,0.2l148.3,0.1l84.5-0.2c12.8,0,29.8-1.2,42.1,0.4c7.6,1,14.6,4.5,20.2,9.8
	c9.2,8.7,12.1,19,12.4,31.3c0.7,27.3,0.1,54.7,0.1,82l0,159.1l0,83.1c0,13.1,1.1,30-0.6,42.6c-1.1,8.4-4.4,16.4-10.4,22.5
	c-7.1,7.4-15.8,10.2-25.8,10.4l-246,0.6l-89.6,0c-13.4-0.1-30.5,0.9-43.5-0.5c-5.8-0.6-11.1-2.5-15.6-6.4
	c-5.4-4.7-8.7-12.3-9.3-19.4c-0.6-7.7-0.2-15.7-0.2-23.5l-0.1-40.6l-0.1-134.4l-0.3-125.6l0.1-37.9c0-7.1-0.3-14.4,0.4-21.4
	c0.7-7.2,3-13.2,7.8-18.7C307.6,294.2,317.7,290.5,329.4,289.7z"/>
<linearGradient id="SVGID_00000119105221889557079380000000695351029768861845_" gradientUnits="userSpaceOnUse" x1="539.5326" y1="260.5113" x2="476.9415" y2="468.2945" gradientTransform="matrix(1 0 0 -1 0 1024)">
	<stop  offset="0" style="stop-color:#2072B4"/>
	<stop  offset="1" style="stop-color:#62B0C5"/>
</linearGradient>
<path style="fill:url(#SVGID_00000119105221889557079380000000695351029768861845_);" d="M304.5,604.1c2.7,4.9,5.7,10.3,6.8,15.9
	c1,4.7,0.9,9.7,0.9,14.5l-0.1,22c-0.1,15.1,0.6,25.2,11.4,36.8c5.3,5.7,11.6,9.8,19.1,11.9c13,3.6,27.2,0.8,40.4,0.7
	c13.2-0.2,26.5,0,39.7,0l208.6,0.4l44.7,0c7.9,0.1,16.3,0.7,24.2,0.1c2.1-0.2,4.1-0.6,5.9-1.7c6.4-3.7,11.1-9.6,12.7-16.9
	c2.7-12.3-1.2-25.9,1.1-38.2c0.6,8.6,1,39.3-0.8,47.1c-1.1,4.6-3.1,8.8-6.3,12.3c-5,5.5-11.6,7.5-18.8,7.7
	c-32,0.9-64.3,0.1-96.3,0.1l-149.2,0.6l-81.5,0c-11.5,0-29.7,1-40.3-0.4c-5-0.6-10.5-3.4-14.1-7c-3.7-3.6-6.7-8.5-7.7-13.6
	c-1.6-7.9-0.6-22.4-0.6-30.9L304.5,604.1z"/>
<path class="st14" d="M303.9,341.7c-0.6-9.9-1.6-20.2,5.3-28.3c5.1-6,12.5-9.2,20.2-9.6c7.6-0.4,15.4-0.2,23-0.2l48.3,0l139.6,0.2
	l105.9,0l30.3-0.1c6.2-0.1,12.8-0.5,19,0.1c6.2,0.6,11.5,3.3,16.1,7.4c5.7,5.2,8.7,11.1,9,18.8c0.5,14.1,0.2,28.2,0.2,42.3
	l-0.2,67.4c-0.1,31.3,0.1,62.7-0.4,94c-0.1,8.3,0.2,16.7-0.2,25c0.8,10.3,0.2,21,0.2,31.4l-0.2,59.6c-2.3,12.3,1.6,25.9-1.1,38.2
	c-1.6,7.3-6.3,13.2-12.7,16.9c-1.8,1.1-3.8,1.6-5.9,1.7c-7.9,0.6-16.3-0.1-24.2-0.1l-44.7,0L422.7,706c-13.2,0-26.5-0.2-39.7,0
	c-13.2,0.2-27.5,3-40.4-0.7c-7.5-2.1-13.8-6.2-19.1-11.9c-10.9-11.6-11.5-21.8-11.4-36.8l0.1-22c0-4.8,0.1-9.8-0.9-14.5
	c-1.1-5.5-4.1-11-6.8-15.9l-0.4-194.8C304.1,386.8,303.4,364.2,303.9,341.7z"/>
</svg>
