<?xml version="1.0" encoding="utf-8"?>
<!-- Generator: Adobe Illustrator 28.3.0, SVG Export Plug-In . SVG Version: 6.00 Build 0)  -->
<svg version="1.1" id="Layer_1" xmlns="http://www.w3.org/2000/svg" xmlns:xlink="http://www.w3.org/1999/xlink" x="0px" y="0px"
	 viewBox="0 0 1024 1024" style="enable-background:new 0 0 1024 1024;" xml:space="preserve">
<style type="text/css">
	.st0{fill:#06285B;}
	.st1{fill:#38AA6E;}
	.st2{fill:#6FD3A9;}
	.st3{fill:#086191;}
	.st4{fill:#E07826;}
	.st5{fill:#F6A326;}
	.st6{fill:#56214E;}
	.st7{fill:#B4C6CA;}
	.st8{fill:#FEFFFE;}
	.st9{fill:#0694BF;}
	.st10{fill:#07C4EF;}
	.st11{fill:#000101;}
</style>
<path class="st0" d="M202.9,627.6c-8.7-6.8-15.1-15.7-16.5-26.8c-0.9-7.2-0.5-14.8-0.5-22.1l0-35.3l-0.1-131.1l0.1-159.1l0-51.3
	c0-9.7-0.5-19.7,0.3-29.4c0.7-8.3,3.3-15.7,8.5-22.2c5.7-7.1,14.7-12.8,23.9-13.7c10.1-1.1,20.6-0.5,30.7-0.4l51,0.1l168.2-0.1
	l234.4,0l65.7-0.2c11.4-0.1,23-0.7,34.3,0c7.7,0.5,14.5,2.8,20.5,7.8c8,6.6,12.8,16.6,13.7,26.9c0.8,8.4,0.3,17.2,0.3,25.7l0,45.8
	l0.2,145.8l-0.2,142.3l0.1,44.2c0,8.4,0.6,17.2-0.2,25.6c-0.8,8.5-4.7,16.2-10.2,22.6c-1.8,2.1-3.9,3.9-6.1,5.7
	c8,4.1,14.8,8.2,20,15.8c5.6,8.4,12.2,24.7,16.5,34.5l28.2,62.7l20.9,46c3.4,7.5,7.8,15.4,10.1,23.3c3.2,10.6-0.9,34.7-4.4,44.7
	c-0.4,1-0.8,2-1.3,3c-4.7,10.2-11.9,18.3-22.6,22.3c-4.3,1.6-8.7,2.4-13.2,2.7c-12.3,0.7-25,0.1-37.4,0.1l-73.5,0l-230.5,0l-254,0
	l-82.1,0c-14.9,0-29.9,0.3-44.9-0.1c-7.3-0.2-14.5-1.2-21.2-4.4c-10.7-5.1-17.1-13.5-20.9-24.5c-2.8-10.2-5.2-31.4-3.1-41.7
	c1.5-7.6,6.7-16.9,9.8-24.1l20.2-46.5l25.4-58.6c5.4-12.6,10.4-26.1,17.2-38C185.5,636.5,193.6,631.8,202.9,627.6z"/>
<path class="st1" d="M118.9,817.6c6,8.7,12.5,15.6,23.4,17.6c8.3,1.5,17.4,0.8,25.8,0.7l40.7-0.3l141.2,0.2l340.4-0.3l116.1,0.2
	c22.3,0.1,44.9,0.9,67.1-0.1c8.3-0.4,16.1-2.5,23-7.3c3.6-2.5,6.4-5.5,9.3-8.7c0,13.4-1.3,32.1-10.7,42.5
	c-5.9,6.5-13.6,9.7-22.3,10.1c-16.7,0.7-33.7,0.1-50.4,0l-96.5-0.1l-272.6,0l-204.3-0.2l-65.9,0c-11.5,0-23.4,0.6-34.9-0.2
	c-6.9-0.5-13.2-2.8-18.3-7.7C118.4,852.8,119,832.5,118.9,817.6z"/>
<path class="st2" d="M118.9,817.6c-0.4-1.9,0-3.3,0.7-5.1c4.6-11.4,9.9-22.6,14.7-33.9l35.4-81.6c3.6-8.2,7.2-16.5,10.7-24.8
	c2.9-7.1,5.5-15.4,9.9-21.7c5.9-8.5,15-13.7,25.1-15.4c6.9-1.1,14.7-0.5,21.7-0.5l37.9,0l135.3,0.1l262.6,0.1l86,0
	c14.5,0,29.5-0.7,44,0.1c7.6,0.5,14.7,3.1,20.9,7.7c3.8,2.8,6.8,5.9,9.1,10.1c5.1,9.3,9.2,19.5,13.6,29.2l25.2,55.9l25,55.3
	c2,4.4,9.4,18.5,9.9,22.4c0.2,1.3-0.3,2.9-0.5,4.2c-2.9,3.2-5.8,6.2-9.3,8.7c-6.9,4.8-14.7,7-23,7.3c-22.2,1-44.8,0.2-67.1,0.1
	l-116.1-0.2l-340.4,0.3l-141.2-0.2l-40.7,0.3c-8.4,0.1-17.6,0.8-25.8-0.7C131.4,833.2,124.9,826.2,118.9,817.6z"/>
<path class="st3" d="M692,654.3l42.1-0.1c1.5,3.8,11.1,25.7,10.9,27.9l-0.8,0.2l-45.3-0.1c-1.5-5.4-8.3-23.3-8-27.6L692,654.3z"/>
<path class="st3" d="M519.3,654.2c15,0.4,30.1,0,45.1,0c0.3,9.3,1.9,18.5,2.2,27.8c-4.9,0.8-10.8,0.2-15.8,0.2l-31,0
	C519.8,672.9,519.4,663.5,519.3,654.2z"/>
<path class="st3" d="M349.4,654.2c5.4,0.6,11.1,0.2,16.5,0.2l28.5-0.1c-1,4.6-4.4,24.3-6.9,27.3c-0.5,0.6-1.2,0.4-1.9,0.4l-45.9,0
	C343.1,672.8,346.4,663.5,349.4,654.2z"/>
<path class="st3" d="M463,654.2c15,0.4,30.2,0,45.2,0c-0.1,4.7,0.8,25.4-0.8,28.1l-1.2,0.1l-45.8,0
	C461.1,672.9,462.1,663.6,463,654.2z"/>
<path class="st3" d="M292.2,654.1c15.1,0.7,30.3,0.1,45.4,0.1c-1.9,5.2-3.7,10.4-5.5,15.6c-1.3,3.9-2.3,8.4-4.3,12.1l-1.2,0.2
	l-46.8,0C283.5,672.7,287.9,663.3,292.2,654.1z"/>
<path class="st3" d="M671.8,654.3l7.4-0.1l8,28c-12.7,0.2-25.3,0-38,0.1l-10,0c-2.5-9-3.8-18.6-5.5-27.9L671.8,654.3z"/>
<path class="st3" d="M575.3,654.3l46.5,0c1,9.2,3.2,18.7,5,27.8l-48,0C577.6,672.9,576.2,663.7,575.3,654.3z"/>
<path class="st3" d="M405.9,654.1c15.3,0.2,30.7,0,46-0.1c-0.7,4.8-2.3,25.1-4,28.1l-1,0.1l-47,0C402.1,672.9,404,663.5,405.9,654.1
	z"/>
<path class="st3" d="M233.9,654c15.3,0.6,30.7,0.1,46,0.1c-3.3,8.5-6.9,17.2-10.9,25.3c-0.7,1.4-0.9,2.2-2.4,2.8l-46.9-0.1
	C224.4,672.7,228.9,663.2,233.9,654z"/>
<path class="st3" d="M520,689.6l47.8,0c0.6,9.6,3,19.6,2.9,29.2l-50.2,0C520.4,709,520,699.3,520,689.6z"/>
<path class="st3" d="M701.2,689.2l46.9-0.1c4.1,9.8,8.5,19.7,12,29.6l-49.3,0.1C707.6,709.2,703.5,699.1,701.2,689.2z"/>
<path class="st3" d="M745.2,654.4l50.1-0.1c4.6,9.2,8.7,18.8,12.9,28.1l-51.4,0C752.5,673.3,748.8,663.9,745.2,654.4z"/>
<path class="st3" d="M215.7,689.4c16,0.6,32.3,0.1,48.4,0.1c-1.8,4.6-10.8,27.2-13.1,29l-49.8-0.1
	C205.9,708.6,210.7,699,215.7,689.4z"/>
<path class="st3" d="M276,689.4c16.2,0.7,32.7,0.1,48.9,0.1c-1.2,4.1-8.5,26.9-9.9,28.6c-0.2,0.3-0.7,0.4-1,0.6
	c-16.7-0.4-33.5-0.2-50.3-0.2C268,708.8,272,699.1,276,689.4z"/>
<path class="st3" d="M579.8,689.5l48.5-0.1c2.5,9.7,4.4,19.7,6.6,29.4l-50.6-0.1C582.5,709,581.2,699.2,579.8,689.5z"/>
<path class="st3" d="M459.6,689.5l48.5,0c0,6,1.3,24.4,0,29.1l-0.9,0.3l-50.2-0.2C457.6,709,458.4,699.2,459.6,689.5z"/>
<path class="st3" d="M336.8,689.6l49.1,0c-1.2,5.5-4.2,25.3-6.4,29.1l-1.3,0.2l-49.8-0.2C331.3,709.1,334.5,699.4,336.8,689.6z"/>
<path class="st3" d="M398.7,689.5l48.5,0c-0.2,5.3-1.3,25.3-3.4,29.1l-1.6,0.2l-49.5-0.1C394.5,709,396.6,699.2,398.7,689.5z"/>
<path class="st3" d="M640.6,689.4l49-0.1l8.7,29.3l-51,0.1C644.9,709.1,642.8,699.2,640.6,689.4z"/>
<path class="st3" d="M759.9,689.5l51.2-0.1c4.8,9.7,9.3,19.7,13.9,29.5c-17.7,0.3-35.4,0-53,0C767.6,709.2,763.8,699.3,759.9,689.5z
	"/>
<path class="st3" d="M712.9,725.1l50.7-0.1c4,11,9.7,21.7,13.3,32.7c-17.7,0.6-35.6,0.1-53.3,0.1
	C720.1,746.9,716.2,736.1,712.9,725.1z"/>
<path class="st3" d="M197.4,725l51.2,0c-1.5,3.8-13.1,30.9-14.6,32.6c-0.2,0.3-0.6,0.3-1,0.5l-52.3,0
	C186.1,746.9,191.8,736,197.4,725z"/>
<path class="st3" d="M323.8,725l52.2,0c-2.1,8.9-5.2,24.9-8.4,32.6l-1,0.3l-52.6,0L323.8,725z"/>
<path class="st3" d="M648.6,725.1l52.5-0.1c3.1,11,8,21.9,10.7,32.8c-18.2,0.8-36.7,0.1-55,0.1L648.6,725.1z"/>
<path class="st3" d="M774.9,725.1l52.9-0.1c3.1,6.8,6.4,13.6,9.7,20.3c2,4.1,4.4,8.2,5.9,12.5c-18.2,0.4-36.3,0.1-54.5,0.2
	C784.7,746.8,779.2,736.2,774.9,725.1z"/>
<path class="st3" d="M259.9,725l53,0c-3.9,10.2-7.3,21.9-11.7,31.6c-0.5,1.1-0.4,1-1.5,1.4l-54.1,0C250,746.9,255.1,736,259.9,725z"
	/>
<path class="st0" d="M425.3,787.4c58.4,0.8,117,0.2,175.4,0.1c2.4,12.1,5.6,23.9,8.9,35.8l-9.8,0.1c-61.4,0.4-122.9,0.6-184.3-0.2
	C418.4,811.2,422,799.3,425.3,787.4z"/>
<path class="st0" d="M407.3,767.8l296-0.1c48.9,0.1,97.9,1.1,146.7,0l4.5,10.3l-239.3,0.2l-446.9-0.2l4.9-9.9L407.3,767.8z"/>
<path class="st3" d="M388.7,725.1l247.7-0.1c2.5,11,4.9,22.1,8,33l-7.6,0l-255.3,0L388.7,725.1z"/>
<path class="st3" d="M224.3,147.7c15.2-0.4,30.6,0,45.8,0.1l71.4,0.1l237.2,0l152.4,0.2L777,148c8.9,0,18.1-0.5,26.9,0.2
	c4.9,0.4,9.6,2.3,13.2,5.6c5.2,4.7,7.8,11.3,8.2,18.1c0.4,7.8,0.1,15.7,0.1,23.5l-0.4,51.1l0,152.8l0.3,141.5l-0.1,36.5
	c0,7.9,0.3,16-0.3,23.9c-0.5,5.9-2.2,10.5-6.4,15c-5.5,5.9-11.9,7.9-19.7,8.1l-395.2-0.1l-121.2-0.2l-36.9-0.1
	c-7.4,0-15,0.4-22.3-0.2c-5.7-0.4-11.1-2.1-15.6-5.7c-5.4-4.3-9.7-11.7-10.3-18.7c-0.6-6.1,0-12.8,0.1-19l0.1-35.6l0.2-124l0-165.3
	l-0.2-50.3c-0.1-10.2-0.8-20.6-0.2-30.8c0.4-6.6,2.1-12.7,6.6-17.8C209.4,150.3,216.3,148.2,224.3,147.7z"/>
<path class="st0" d="M510.9,160.1c3.4,0,6.5,0.5,9.4,2.5c3.2,2.2,5.4,5.6,6.1,9.4c0.8,4.2-0.2,8.8-2.7,12.2c-2.9,3.9-6.3,5.3-11,6.1
	c-3.2-0.3-6.2-0.8-8.9-2.6c-3.6-2.3-6-6-6.7-10.2c-0.7-4,0.3-8.1,2.7-11.4C502.6,162.4,506.3,160.9,510.9,160.1z"/>
<path class="st0" d="M225.6,200.1l391.4,0.4l123.6,0l36.9,0c5.3,0,11.3-0.6,16.6,0c1,0.1,2,0.1,2.5,1.1c2.2,4.1,1.4,58.8,1.5,66.9
	l0.2,226.6l0.1,63c0,9.9,1.1,22.9-0.7,32.4c-0.6,0.4-1,0.6-1.7,0.8c-4.7,1.2-27.4,0.3-34.3,0.3l-86.6,0l-295.5,0l-99.5,0
	c-15.7,0-31.7,0.6-47.4,0c-2.2-0.1-4.6-0.3-6.5-1.4c-1.8-7.5-0.6-26.2-0.6-34.9l0-81.3l0-145.7C225.3,285.6,224.8,242.8,225.6,200.1
	z"/>
<path class="st4" d="M747.5,209.4l40.4,0L787.7,450c0,43.9,0.5,87.9-0.1,131.8l-552.1,0l0-51.4c0-8.5-0.6-17.4,0.1-25.8
	c1.3,2.8,0.4,45.8,0.4,52.5l325.2-0.1l90.9-0.5l32.7-0.3c6.7-0.1,13.7,0.2,20.3-0.9c9.9-1.6,19.4-7.3,26.5-14.3
	c7.9-7.8,13.3-18.4,15.1-29.4c1.6-10.1,0.8-21.3,0.8-31.5l-0.1-61.6L747.5,209.4z"/>
<path class="st5" d="M235.4,209.4l512.2,0l0,209.2l0.1,61.6c0,10.2,0.8,21.5-0.8,31.5c-1.8,11-7.2,21.5-15.1,29.4
	c-7,7-16.6,12.7-26.5,14.3c-6.6,1.1-13.6,0.8-20.3,0.9l-32.7,0.3l-90.9,0.5L236,557.1c0-6.7,0.9-49.7-0.4-52.5
	c-1-33.4-0.2-67.1-0.2-100.6L235.4,209.4z"/>
<path class="st6" d="M506,245.7c0.8,0,1.5-0.1,2.3-0.1c61.9-1.5,122.1,24.3,166.7,66.7c17.7,16.8,32.6,36.2,45.4,56.9
	c4.2,6.8,10,15,10.1,23.3c0.1,16.1-30.4,54.5-42.4,67.1c-45.8,48.1-102.4,75.5-169.1,77.1c-34.7,0.6-68.9-5.3-100.8-19.2
	c-57-25-100.8-69-123.4-127.1c7.2-22.9,26.9-51.4,43.2-68.9C381.8,274.3,441.7,248,506,245.7z"/>
<path class="st7" d="M582,287.2c9,2.4,17.7,6.7,25.9,11c29.9,15.5,56,40.3,75.3,67.7c6.4,9.1,12,18.6,17.7,28.1l-2.4,4.2
	c-15.2-21-41.2-44.1-62.9-58.1c-3.4-2.2-7.9-5.8-11.9-6.6c-8.4-13.5-16.2-25.7-28.5-36.3c-4.1-3.5-8.7-6.4-12.9-9.8L582,287.2z"/>
<path class="st7" d="M322.9,391.3c2.4-6.7,6.2-13.2,9.9-19.3c23.7-38.8,67.8-75.8,112.7-86.6c-20.5,12.2-34.9,28.5-45.7,49.7
	c-4.2,2.1-8,5.4-11.5,8.4c-16.9,14.2-39.3,39.8-46.5,60.8c0,0.1-0.1,0.3-0.1,0.4c4.4,9.4,7.9,19.4,12.6,28.7c0.4,0.7,0.5,1.2,0.7,2
	C344.3,425.6,328.9,404.1,322.9,391.3z"/>
<path class="st8" d="M341.7,404.7c0-0.1,0.1-0.3,0.1-0.4c7.2-21,29.6-46.6,46.5-60.8c3.6-3,7.4-6.3,11.5-8.4
	c-14.5,35-16.9,66.8-2.1,102.3c9.1,21.7,24.6,40.9,44.2,54c5.5,3.7,12.1,6.3,17.4,10.2c-35.5-8.6-81.4-37.9-104.4-66.3
	c-0.1-0.8-0.3-1.3-0.7-2C349.6,424.1,346.1,414.1,341.7,404.7z"/>
<path class="st8" d="M623.8,333.6c4,0.8,8.5,4.4,11.9,6.6c21.6,14.1,47.7,37.1,62.9,58.1c-3.3,6.1-7.6,11.9-11.7,17.5
	c-25.3,34.6-63.2,67.2-104.7,79.9c-1.5,0.5-3.1,0.8-4.7,1.2c5.3-3.8,10.7-7.4,15.7-11.5c15.2-12.6,26.8-29,34.2-47.2
	C642.3,401.7,638.8,369.1,623.8,333.6z"/>
<path class="st3" d="M445.6,285.4c9-3.4,17.8-7,27.2-9.5c34.9-9.1,72-5.8,104.8,9.1c1.5,0.7,3.1,1.4,4.5,2.2l0.3,0.3
	c4.2,3.5,8.8,6.3,12.9,9.8c12.3,10.6,20.2,22.7,28.5,36.3c15,35.5,18.5,68.1,3.6,104.5c-7.5,18.2-19,34.6-34.2,47.2
	c-5,4.2-10.4,7.7-15.7,11.5c-32.8,14-62.2,18.2-97.3,10.6c-6.6-1.4-13.8-2.9-20.1-5.4l-0.8-0.3c-5.3-3.9-11.8-6.5-17.4-10.2
	c-19.5-13.1-35.1-32.4-44.2-54c-14.9-35.5-12.4-67.3,2.1-102.3C410.6,314,425.1,297.6,445.6,285.4z"/>
<path class="st9" d="M502.9,275.7c1.5-0.1,3.1-0.1,4.6-0.2c31.4-0.8,64.4,8.5,87.5,30.6c22.5,21.6,34.5,52.5,35,83.4
	c0.6,30.7-11.2,60.7-32.6,82.6c-20.2,20.7-47.3,31.7-76.1,31.9c-31.6,0.5-58.5-4.3-83.8-24.9c-23.9-19.5-39.3-48.1-42.5-78.8
	c-3.1-30.5,6.8-62.3,26.2-86C441.9,289.5,471.6,278.6,502.9,275.7z"/>
<path class="st10" d="M501,292.7c2.9-0.4,6-0.3,8.9-0.3c24.7-0.2,48.1,10.2,65.5,27.6c17.6,17.6,28.6,41.4,28.5,66.5
	c-0.1,25.1-10,50.2-27.9,67.8c-21.9,21.5-44.8,29.4-75,29.1c-23.1-1.4-43.9-6.9-62.7-20.9c-15.2-11.4-26.1-25.3-34.4-42.3
	c-2.5-5-5.1-10.8-5.8-16.4c-1.3-11,10.7-40.7,16-50.6c3.9-7.3,8.3-14.3,13.6-20.7C446.5,309.9,471.7,295.5,501,292.7z"/>
<path class="st11" d="M562.8,353c5.3,6.5,7.2,19.9,7.1,28.1c-0.2,15.6-7.3,31.2-18.5,41.9c-10.5,10.1-26.1,15.6-40.6,15.2
	c-14.6-0.4-28.8-6.7-38.8-17.4c-10.7-11.6-15.3-26.4-14.6-42c0.7-15,7.2-28.9,18.3-39c11.4-10.4,26.2-15.2,41.5-14.4
	c11.7,0.6,27.6,5.9,35.6,14.9C557.2,343.9,560.1,348,562.8,353z"/>
<path class="st8" d="M562.8,353c1.5,5.8,1.7,11.6-0.1,17.4c-1.9,6-7.4,11.8-12.8,14.5c-6.4,3.2-14.1,3.2-20.7,0.8
	c-6.2-2.3-11.1-7-13.8-13c-2.8-6.3-2.9-13.5-0.4-19.8c2.6-6.3,7.6-11.8,14-14.4c8.4-3.4,15.9-1.4,23.8,1.9
	C557.2,343.9,560.1,348,562.8,353z"/>
</svg>
