<?xml version="1.0" encoding="utf-8"?>
<!-- Generator: Adobe Illustrator 28.3.0, SVG Export Plug-In . SVG Version: 6.00 Build 0)  -->
<svg version="1.1" id="Layer_1" xmlns="http://www.w3.org/2000/svg" xmlns:xlink="http://www.w3.org/1999/xlink" x="0px" y="0px"
	 viewBox="0 0 1024 1023" style="enable-background:new 0 0 1024 1023;" xml:space="preserve">
<style type="text/css">
	.st0{fill:#65D0D2;}
	.st1{fill:#076173;}
	.st2{fill:#04415B;}
	.st3{fill:#056E7E;}
	.st4{fill:#2098A6;}
	.st5{fill:#921C2D;}
	.st6{fill:#F36337;}
	.st7{fill:#966F7F;}
	.st8{fill:#CAAEA9;}
	.st9{fill:#F6D6CB;}
	.st10{fill:#E7F1F2;}
	.st11{fill:#FCAE8B;}
	.st12{fill:#023357;}
	.st13{fill:#F6886D;}
	.st14{fill:#8C4134;}
	.st15{fill:#1A0835;}
	.st16{fill:#FFC5D2;}
	.st17{fill:url(#SVGID_1_);}
	.st18{fill:#25000A;}
</style>
<path class="st0" d="M868.2,857.6c6.5-0.5,12.6,0.7,18.2,4.3c6.3,4.1,10.8,10.8,12.3,18.2c1.4,7.1-0.6,14.8-4.6,20.8
	c-4.6,6.7-11.3,10.2-19.1,11.5c-6.8,0.7-13.1-0.2-19-4c-6-3.9-10.4-10-11.9-17c-1.6-7.6,0.2-15.9,4.6-22.2
	C853.4,862.2,860.2,859,868.2,857.6z"/>
<path class="st1" d="M786,942.4c5.8,17.2,10.5,35,14.8,52.7l-57.7,0c-0.1-11.4-3.1-22.9-3.7-34.4c-0.2-3.2,0.2-6.6,2.5-9.1
	C747.9,945.3,776.8,942.8,786,942.4z"/>
<path class="st0" d="M147.3,327.1c7.9-0.6,15.5,0.7,22.2,4.9c7.6,4.8,13.3,12.6,15.2,21.4c1.8,8.6-0.1,17.5-4.9,24.8
	c-5,7.5-12.5,12-21.3,13.8c-8.4,1.4-17.5,0-24.7-4.7c-7.3-4.8-12.3-12.7-14-21.2c-1.8-8.5-0.1-17.3,4.7-24.6
	C129.8,333.3,137.8,329,147.3,327.1z"/>
<path class="st2" d="M696.9,920.1c21.2-0.4,42.5-1.4,63.7-2.2c2.9-0.1,13.5-1.1,15.6-0.7c0.3,0.1,0.6,0.4,0.8,0.6l0.2,0.1
	c3,7.1,5.2,14.5,7.7,21.8l1,2.6c-9.2,0.4-38.1,2.9-44.1,9.2c-2.3,2.4-2.7,5.8-2.5,9.1c0.6,11.4,3.6,22.9,3.7,34.4l-34.8,0.1
	c-3.3-14.3-4.4-29.4-7-43.9l-0.4-2.7C699.6,939,697.9,929.6,696.9,920.1z"/>
<path class="st3" d="M777.1,917.9l0.2,0.1c3,7.1,5.2,14.5,7.7,21.8c-19-4.6-51.2-1.3-68.7,7c0.1-2.8-0.3-6.9,1.2-9.4
	c5.2-9,47.7-16.6,58.7-19.2L777.1,917.9z"/>
<path class="st1" d="M663.6,921.8c2.9-0.6,6.5-0.4,9.5-0.5l23.8-1.2c1,9.5,2.7,18.9,4,28.4l0.4,2.7c2.6,14.5,3.7,29.6,7,43.9
	l-33.1,0l-6.4,0c-20.5,0.1-41.1,0.3-61.7-0.1c-1.8-9.7-3.9-19.4-5.8-29.2l-0.6-3.4l-0.6-4.3l-0.7-3.7c-1.4-9.7-3.2-19.4-5.3-29
	l-0.1-0.3l0.4-0.6c3.3-1.4,56.2-2.4,64.4-2.6L663.6,921.8z"/>
<path class="st4" d="M658.9,922l4.8-0.2l1.5,0.5c2.2,5.1,3.3,23.2,4.6,30.2l31.1-4l0.4,2.7c-2,1.4-26.7,4.2-31.3,4.7
	c2.3,12.9,3.8,26.2,5.2,39.3l-6.4,0c-0.7-12.7-4-25.6-5.4-38.3c-20.5,3.1-41.8,4.5-62,9.1l-0.6-3.4c4.4-1.4,9.8-1.7,14.5-2.4l27.9-4
	c6.5-0.9,13.2-1.5,19.6-2.9C661,942.9,659.7,932.3,658.9,922z"/>
<path class="st3" d="M663.6,921.8c2.9-0.6,6.5-0.4,9.5-0.5l23.8-1.2c1,9.5,2.7,18.9,4,28.4l-31.1,4c-1.3-7-2.4-25.1-4.6-30.2
	L663.6,921.8z"/>
<path class="st1" d="M701.2,951.2c2.6,14.5,3.7,29.6,7,43.9l-33.1,0c-1.5-13.1-2.9-26.3-5.2-39.3
	C674.5,955.3,699.3,952.6,701.2,951.2z"/>
<path class="st1" d="M594.1,925.4l-0.1-0.3l0.4-0.6c3.3-1.4,56.2-2.4,64.4-2.6c0.9,10.3,2.1,20.9,3.8,31.2c-6.4,1.4-13.1,2-19.6,2.9
	l-27.9,4c-4.6,0.7-10,1-14.5,2.4l-0.6-4.3l-0.7-3.7C598,944.7,596.1,935,594.1,925.4z"/>
<path class="st5" d="M553.1,925.5c5.8-0.2,37.2-2,40.6-1l0.4,0.9c2,9.6,3.9,19.3,5.3,29l0.7,3.7l0.6,4.3l0.6,3.4
	c1.8,9.7,4,19.4,5.8,29.2c-16-0.2-32-0.3-48,0.1l-3.2,0c-24.1-0.4-48.4-0.3-72.5,0c1-9.5,2-19,3.4-28.4l0.6-4.3
	c1.2-9.6,2.6-19.3,3.2-28.9c0.6-2.1,0.8-4.5,1.1-6.6c19.6-0.1,39.1-0.8,58.7-1.5L553.1,925.5z"/>
<path class="st6" d="M550.4,925.4l2.7,0.1c1.1,11.2,2,22.3,2.9,33.5c14.2-1,29.3-2,43.3-4.5l0.7,3.7c-14.3,2.1-29.2,4.3-43.6,4.9
	c0.4,10.7,2.6,21.4,2.7,32.1l-3.2,0c-0.5-6.1-1.1-27.8-3.2-32c-21.8,2.1-44,3.4-65.8,3.6l0.6-4.3c21.8,0.1,43.9-1.2,65.6-3.2
	C552.2,948,550.9,936.7,550.4,925.4z"/>
<path class="st5" d="M553.1,925.5c5.8-0.2,37.2-2,40.6-1l0.4,0.9c2,9.6,3.9,19.3,5.3,29c-14,2.5-29.1,3.6-43.3,4.5
	C555.1,947.8,554.2,936.6,553.1,925.5z"/>
<path class="st5" d="M556.4,963.1c14.4-0.6,29.4-2.8,43.6-4.9l0.6,4.3l0.6,3.4c1.8,9.7,4,19.4,5.8,29.2c-16-0.2-32-0.3-48,0.1
	C559,984.5,556.8,973.8,556.4,963.1z"/>
<path class="st5" d="M552.6,963.2c2.1,4.2,2.7,25.9,3.2,32c-24.1-0.4-48.4-0.3-72.5,0c1-9.5,2-19,3.4-28.4
	C508.7,966.6,530.8,965.3,552.6,963.2z"/>
<path class="st0" d="M188.2,637.2c-21.5-4.1-41.6-17.2-56.3-33.1c-21.4-23.2-31.8-53-30.5-84.4c1.7-40.6,27.5-77.9,65.2-93.3
	c17.1-7,31.4-7.1,45.9-20.5c24.1-22.4,26-57.1,11.4-85.4c-6.5-12.7-16.1-23.5-21.4-36.8c-5.1-12.7-6.6-25.9-6-39.5
	c1.8-38.8,29.2-83.2,57.8-108.9c36.9-33.3,87.8-51.7,137.6-49.2c-2.9,9.4-4,18.1-2,27.8c-4.7-0.5-9.2-0.8-13.9-0.8
	c-15.5,2.1-26.7,9.1-36.2,21.6c-5.1,6.8-9.3,14.7-11.6,23c-6.6,25.7-0.3,54.7,13,77.3c3.3,5.6,7.1,11.1,11.6,15.8
	c-12.2,4.7-20.8,11.7-26.2,23.9c-5.9,13.3-5.2,28.8,0,42.1c5.4,13.8,16,25.9,29.7,31.9c10.7,4.7,23,5,33.8,0.6
	c6.8-2.8,12.3-6.9,17.5-12c1.7,12.9,3.7,26.2,6.5,38.9c-39.7,12.4-71.2,33-102,60.6c-5,4.5-13.3,10.3-16.4,16.3
	c-0.7,1.3-1.1,2.6-0.7,4.1c1.5,5.9,31.8,29.2,38.3,34.2c-6.6,3.5-13.3,7.1-20.2,10l-3,1.6c-7.6,4-15.3,8.1-22.6,12.6
	c-14.6,8.8-28.6,18.7-41.9,29.4c-1.4-0.5-1.9-0.6-3.2,0.1c-14.7,7.7-36.2,51-42.9,66.2l-1.4,3.1L188.2,637.2z"/>
<path class="st7" d="M755.2,677.5c19,0.5,38.6-1.1,57.6-1.8c23.4-0.9,46.9-1.1,70.2-2.8c2.2,0.6,6.2,1.2,7.4,3.3
	c-0.8,1.1-1.5,1-2.7,1.3c2.4-0.1,3.9-0.1,5.7,1.8c1.9,2,2.3,4.8,2.2,7.4c-0.5,9.4-12.4,37.7-16.3,48.2l-30.4,80.5l-15,41.7
	c-1.9,5.1-3.4,10.5-5.6,15.4c-2.8,8.4-6.6,16.5-9.3,24.8c1.3,2,2,4.3,1.4,6.6c-0.4,1.4-1.2,2.8-2.6,3.5c-4.7,5.4-8.7,8-16,8.5
	c-4.7,0.4-21.8-0.5-24.5,1.9l-0.2-0.1c-0.3-0.2-0.5-0.6-0.8-0.6c-2.1-0.5-12.8,0.6-15.6,0.7c-21.2,0.7-42.5,1.7-63.7,2.2l-23.8,1.2
	c-3,0.2-6.6,0-9.5,0.5l-4.8,0.2c-8.2,0.2-61.1,1.2-64.4,2.6l-0.4,0.6l0.1,0.3l-0.4-0.9c-3.4-1-34.8,0.8-40.6,1l-2.7-0.1
	c-19.6,0.7-39.1,1.4-58.7,1.5c-1.6,0.1-3.4,0-4.9,0.3c-0.3,0.6-0.3,0.7-0.8,1.3c-3.8,5.3-12.3,9.4-18.5,10.5
	c-10.6,1.9-21.6-5.6-29.9-11.3l-0.3-5.5c-1-8.7,0.1-20.4,3.3-28.6c2.4-6.1,7.2-7.6,12.8-10.1l4.5-4.3c13.1-12,22.2-26.6,32.2-41.1
	c4.5-5.9,9.6-11.6,17.5-12.5c11.5-1.3,24.9,9.8,33.7,16.1c1,0.8,2,1.7,3.1,2.3c4.3,3.6,8.4,7.3,12.4,11.2c3.1,3,6.5,7.2,10.1,9.5
	l0.7-0.3c4.6-20.7,12.2-44.7,18.6-65.1l1.2-3.5c1.4-5,2.9-9.9,4.2-14.9c2.5-6.1,4.2-12.6,6-18.9l9.3-30.8c1.6-5.1,3-10.5,5.2-15.4
	c1.2-5.7,3.3-11.5,4.9-17.1c1.1-2.5,2.5-4.6,4.3-6.6c9.3-10.4,20.1-10.2,33-10.6c6.8-0.2,13.6-0.4,20.4-0.8l3.3-0.1
	c11.3-0.3,22.5-0.9,33.8-1.3l7.6-0.3c10.2-0.6,20.5-0.9,30.7-1.4l3,0L755.2,677.5z"/>
<path class="st8" d="M617.2,698.7c1.9,0.6,3.1,0.7,5,0.5l-5.5,16.4c-4.9,17.7-11.4,35.1-16.9,52.7c-10.3,32.4-20.3,65.1-31.2,97.3
	l-0.8-1c4.6-20.7,12.2-44.7,18.6-65.1l1.2-3.5c1.4-5,2.9-9.9,4.2-14.9c2.5-6.1,4.2-12.6,6-18.9l9.3-30.8c1.6-5.1,3-10.5,5.2-15.4
	C613.5,710.1,615.6,704.3,617.2,698.7z"/>
<path class="st9" d="M617.2,698.7c1.9,0.6,3.1,0.7,5,0.5l-5.5,16.4c0-0.2-0.1-0.5-0.1-0.7c-0.5-3.2,3-5.5,0.7-8.6l-1.1-0.4
	c-1,2.8-1.8,8.1-3.5,10.2l-0.4-0.2C613.5,710.1,615.6,704.3,617.2,698.7z"/>
<path class="st10" d="M725.4,781.6c3-0.2,5.7-0.1,8.5,1.2c3.6,1.6,6,4.6,7.2,8.3c1.8,5.5,0.8,11.5-2,16.5c-3.4,6-8.2,8.9-14.6,10.7
	c-3.2,0.1-6-0.1-8.9-1.6c-3.6-1.8-6-5-7.1-8.8c-1.5-5.3-0.4-10.7,2.3-15.4C714.3,786.6,718.9,783.2,725.4,781.6z"/>
<path class="st10" d="M755.2,677.5c19,0.5,38.6-1.1,57.6-1.8c23.4-0.9,46.9-1.1,70.2-2.8c2.2,0.6,6.2,1.2,7.4,3.3
	c-0.8,1.1-1.5,1-2.7,1.3l-165.9,6.8c-25.4,1.1-51,1.6-76.3,3.3c-7.9,0.3-14.8,2-20.4,8c-1.1,1.1-2,2.3-2.8,3.6c-2,0.2-3.1,0.2-5-0.5
	c1.1-2.5,2.5-4.6,4.3-6.6c9.3-10.4,20.1-10.2,33-10.6c6.8-0.2,13.6-0.4,20.4-0.8l3.3-0.1c11.3-0.3,22.5-0.9,33.8-1.3l7.6-0.3
	c10.2-0.6,20.5-0.9,30.7-1.4l3,0L755.2,677.5z"/>
<path class="st8" d="M819,897.4c1.3,2,2,4.3,1.4,6.6c-0.4,1.4-1.2,2.8-2.6,3.5c-4.7,5.4-8.7,8-16,8.5c-4.7,0.4-21.8-0.5-24.5,1.9
	l-0.2-0.1c-0.3-0.2-0.5-0.6-0.8-0.6c-2.1-0.5-12.8,0.6-15.6,0.7c-21.2,0.7-42.5,1.7-63.7,2.2l-23.8,1.2c-3,0.2-6.6,0-9.5,0.5
	l-4.8,0.2c-8.2,0.2-61.1,1.2-64.4,2.6l-0.4,0.6l0.1,0.3l-0.4-0.9c-3.4-1-34.8,0.8-40.6,1l-2.7-0.1c-19.6,0.7-39.1,1.4-58.7,1.5
	c-1.6,0.1-3.4,0-4.9,0.3c-0.7-0.9-1.2-2-1.8-2.9l2.8-6c1.2-2.6,2.5-4.9,4.1-7.2c2.4-1.2,4.9-2.1,7.5-3.1c8,0.1,16.3-1.1,24.3-1.3
	c10.3-0.3,20.7,0.1,30.9-0.7c12.8,0.6,25.9-0.5,38.7-0.9l63.7-1.9l104.9-3.5C780.9,898.9,800,898.6,819,897.4z"/>
<path class="st7" d="M487.9,918.3l96.3-2.9c17.4-0.6,230.8-9.1,233.7-7.9c-4.7,5.4-8.7,8-16,8.5c-4.7,0.4-21.8-0.5-24.5,1.9
	l-0.2-0.1c-0.3-0.2-0.5-0.6-0.8-0.6c-2.1-0.5-12.8,0.6-15.6,0.7c-21.2,0.7-42.5,1.7-63.7,2.2l-23.8,1.2c-3,0.2-6.6,0-9.5,0.5
	l-4.8,0.2c-8.2,0.2-61.1,1.2-64.4,2.6l-0.4,0.6l0.1,0.3l-0.4-0.9c-3.4-1-34.8,0.8-40.6,1l-2.7-0.1c-19.6,0.7-39.1,1.4-58.7,1.5
	c-1.6,0.1-3.4,0-4.9,0.3c-0.7-0.9-1.2-2-1.8-2.9L487.9,918.3z"/>
<path class="st11" d="M490.2,838.3c4.5-5.9,9.6-11.6,17.5-12.5c11.5-1.3,24.9,9.8,33.7,16.1c1,0.8,2,1.7,3.1,2.3
	c4.3,3.6,8.4,7.3,12.4,11.2c3.1,3,6.5,7.2,10.1,9.5l0.7-0.3l0.8,1c-2.9,9.1-5.7,18.3-8.8,27.4c-0.4,1.9-0.7,3.8-1.6,5.5l-0.6,0
	c-0.8,2.5-1.6,5.3-2.8,7.6c-10.3,0.8-20.6,0.4-30.9,0.7c-8.1,0.3-16.3,1.4-24.3,1.3c-2.5,1-5,2-7.5,3.1c-1.6,2.3-2.9,4.6-4.1,7.2
	l-2.8,6c0.6,1,1.1,2.1,1.8,2.9c-0.3,0.6-0.3,0.7-0.8,1.3c-3.8,5.3-12.3,9.4-18.5,10.5c-10.6,1.9-21.6-5.6-29.9-11.3l-0.3-5.5
	c-1-8.7,0.1-20.4,3.3-28.6c2.4-6.1,7.2-7.6,12.8-10.1l4.5-4.3C471.1,867.4,480.2,852.8,490.2,838.3z"/>
<path class="st5" d="M546.2,892.7c-0.5-0.7-1-1.3-1.5-2c-11-14.4-43.3-26-61.6-28.3c-1.1-0.1-0.6,0.1-1.5-0.7l1.1,0.2l-0.5-0.3
	c6.2,0.5,12.4,1.7,18.4,3.2c13.4,3.4,39.7,13.5,47.1,26L546.2,892.7z"/>
<path class="st6" d="M488.2,886.3c18.4,7.6,37.2,13.6,57.2,9.7c0.5-1.1,0.6-2.1,0.8-3.3l1.6-1.9l1.6,3.6c3.5,0.2,7-0.7,10.4-1.5
	c-0.4,1.9-0.7,3.8-1.6,5.5l-0.6,0c-2.8,0.3-5.6,0.7-8.4,0.8c-1.8,0-3.4,0.1-5.1,0.4c-11.2,4.6-27.4,1.1-38.5-2.4
	c0.4,2.8,0.6,4.3-0.9,6.8l-1-5.5C498.9,894.1,493.2,890.3,488.2,886.3z"/>
<path class="st12" d="M504.5,903.9c1.5-2.5,1.3-3.9,0.9-6.8c11.1,3.5,27.3,7,38.5,2.4c1.7-0.3,3.3-0.4,5.1-0.4
	c2.8-0.1,5.6-0.5,8.4-0.8c-0.8,2.5-1.6,5.3-2.8,7.6c-10.3,0.8-20.6,0.4-30.9,0.7c-8.1,0.3-16.3,1.4-24.3,1.3
	C501.3,906.8,502.9,905.3,504.5,903.9z"/>
<path class="st6" d="M437.4,922.3c-1-8.7,0.1-20.4,3.3-28.6c2.4-6.1,7.2-7.6,12.8-10.1c-5.7,10.6-9.1,21.2-5.4,33.1
	c1.7,5.6,5.1,11.2,10.4,14.1c4.6,2.5,10,2.5,15,1c4.6-1.4,8.4-4,11.6-7.6c0.6,1,1.1,2.1,1.8,2.9c-0.3,0.6-0.3,0.7-0.8,1.3
	c-3.8,5.3-12.3,9.4-18.5,10.5c-10.6,1.9-21.6-5.6-29.9-11.3L437.4,922.3z"/>
<path class="st6" d="M414.1,375.9c0.8,7.1,2,14.3,2.4,21.5c1,17.6,1.2,35.1,1,52.7l0.2,7.4c1.5,2.3,6,4.4,8.5,5.8l1.2,1l0.5,0.1
	c5.8,1.4,11.3,4,17.1,5.6c21.5,5.8,44.7,7.1,66.6,3.3c5.2-0.9,12.6-1.8,17.2-4.3c0.8-0.4,0.6-0.3,1.1-0.9l0.1-0.5
	c-0.1-5-0.1-9.9,0-14.9c-0.2-5.4,0.1-10.9,0.3-16.3c15.4,0.5,30.7-3.3,43.7-11.6c5.9-4.5,10.7-9.4,15.2-15.3
	c25,7.8,65.6,35.2,84,53.9c-9.1,14.8-22.4,27-32.6,41.1c2.3,1.1,4.7,2.1,7.1,3c13.9,6.8,27.4,13.9,40,23c1.6,1.2,4.1,2.5,5.4,4
	l1.9,2.3c2,2.9,4.2,5.9,5.9,9c6.6,10.5,12.4,21.3,18,32.3l1,2.3c12.7,23.9,22.3,50.5,30.1,76.4l0.8,3.3c1.8,5.7,3.4,11.4,4.4,17.3
	l-1.9,0.1l-3,0c-10.2,0.4-20.5,0.8-30.7,1.4l-7.6,0.3c-11.3,0.4-22.5,1.1-33.8,1.3l-3.3,0.1c-6.8,0.4-13.6,0.6-20.4,0.8
	c-12.9,0.4-23.7,0.3-33,10.6c-1.8,2-3.2,4.1-4.3,6.6c-1.6,5.6-3.8,11.4-4.9,17.1c-2.1,4.9-3.6,10.3-5.2,15.4l-9.3,30.8
	c-1.9,6.3-3.5,12.9-6,18.9c-1.3,5-2.7,10-4.2,14.9l-1.2,3.5c-6.4,20.4-14,44.4-18.6,65.1l-0.7,0.3c-3.6-2.2-7-6.5-10.1-9.5
	c-4-3.9-8.1-7.6-12.4-11.2c-1.2-0.6-2.1-1.5-3.1-2.3c-8.8-6.4-22.3-17.4-33.7-16.1c-7.9,0.9-13,6.6-17.5,12.5l-0.9-1.2
	c-1.5-10.1-1.5-20.4-2.7-30.6l-0.1-3l-0.3-0.7l-0.3-3.7l0-1.4c-1.1-6.6-1.3-13.6-1.8-20.2c-1-11.5-2.1-22.9-3.6-34.3l-0.4-3.2
	c-0.5-6.1-1.3-12.2-1.9-18.2l-0.5-4.3c-1.9-15.2-4-30.4-6.2-45.5l-0.7-3.9c-1.2-8.4-2.5-16.8-4-25.2l-0.7-4.4l-1.8-9.4
	c-1.1-5.7-2.3-11.4-4.6-16.7c-7.6-11-15.6-22.1-24.6-32c-6.2-6.9-13.2-13.2-19.8-19.7l-4-3.8c-24.8-23.5-51.5-44.2-78-65.6
	c-6.5-5-36.8-28.3-38.3-34.2c-0.4-1.5,0-2.8,0.7-4.1c3-6,11.3-11.8,16.4-16.3C342.9,408.9,374.3,388.3,414.1,375.9z"/>
<path class="st11" d="M429.6,542.8c2.9-1.9,25.5-0.7,30.7-1c33.8-1.5,68.7-2.4,101.9-8.9l-0.1,1c-17,3.5-35.3,5.9-52.6,6.2
	c3.5,18.8,5.2,37.7,8.5,56.5c18.4-2.1,36.4-4.8,54.5-9c0.1,1.3,0.3,2.7,0,4c-9.4,1.6-18.7,3.9-28.1,5.3c-7.4,1.1-19,1.5-25.7,3.4
	c1.4,21,6.4,41.8,7.8,62.7c15.9-2,33.8-2.8,49.2-6.6l0.5,2.4l0,0.5c-15.2,2.9-34,5.8-49.4,6.8c3,22.8,4.3,45.7,7.1,68.5l7.4-0.8
	l-0.8,3.3l-1.2,0.3c-1.5,0.2-3.5,0.2-4.7,1.3c-0.7,1.7,0,3.8,0.3,5.6l0,0.7l-2.4,2.5c-0.4-3-0.8-6.1-1.1-9.1
	c-16.9,2.4-34.2,3.4-51.2,5l-0.4-3.2c16.8-2.8,34.2-2.9,51.2-5.2c-0.8-22.7-4.6-45.5-7-68c-6.6,0.4-13.3,1.4-20,2
	c-10.9,1.1-21.9,1.9-32.8,3.2l-0.7-3.9c7.4,0,14.9-1,22.3-1.6c10.3-0.9,20.6-1.9,30.9-3.1c-1.5-7.4-1.9-15.4-2.9-22.9l-5.1-39.7
	c-7.4-0.5-15.8,1.1-23.2,1.6c-11.5,0.8-23.1,1-34.5,2.2l-1-3.1c19.4-0.7,38.6-3.2,58-4.6c-1.1-18.9-5.6-37.6-7-56.5
	c-25.9,2.2-51.8,2.6-77.7,3.1L429.6,542.8z"/>
<path class="st6" d="M562.2,533.9c3.7,17.8,7.4,35.8,10.5,53.8c-18.1,4.1-36,6.8-54.5,9c-3.3-18.8-5-37.7-8.5-56.5
	C526.9,539.8,545.2,537.4,562.2,533.9z"/>
<path class="st5" d="M415.6,516.9c-10.5-15.3-22.2-30-33.8-44.5c-4.8-6-10-11.8-14.6-18c-3-4.1-10-14-8.8-19.2
	c1.2-5.1,51.2-33.8,58.1-37.8c1,17.6,1.2,35.1,1,52.7c-3.2,0-6.1-0.3-8.6,2.1c-3,2.9-3.1,7.3-3,11.2c0.1,3.3,0.4,6.5,0.6,9.8
	c0.2,10.3,3.1,21.9,5.8,31.9C413.4,508.9,415,513,415.6,516.9z"/>
<path class="st6" d="M471.4,672c10.9-1.2,21.9-2.1,32.8-3.2c6.6-0.7,13.3-1.7,20-2c2.4,22.6,6.1,45.4,7,68
	c-16.9,2.3-34.3,2.5-51.2,5.2c-0.5-6.1-1.3-12.2-1.9-18.2l-0.5-4.3C475.7,702.3,473.6,687.2,471.4,672z"/>
<path class="st6" d="M526.9,666.1c15.4-1,34.2-3.9,49.4-6.8c0.8,6.6,1.6,13.1,2.3,19.7c2.3,16,4,32.2,6,48.2l0.4,3
	c0.8,8.2,4.4,45.8,6.7,50.7c-1.3,5-2.7,10-4.2,14.9l-1.2,3.5c-6.4,20.4-14,44.4-18.6,65.1l-0.7,0.3c-3.6-2.2-7-6.5-10.1-9.5
	c-4-3.9-8.1-7.6-12.4-11.2c-1.2-0.6-2.1-1.5-3.1-2.3c-8.8-6.4-22.3-17.4-33.7-16.1c-7.9,0.9-13,6.6-17.5,12.5l-0.9-1.2
	c-1.5-10.1-1.5-20.4-2.7-30.6l-0.1-3l-0.3-0.7l-0.3-3.7l0-1.4c-1.1-6.6-1.3-13.6-1.8-20.2c-1-11.5-2.1-22.9-3.6-34.3
	c17-1.6,34.3-2.6,51.2-5c0.4,3,0.7,6.1,1.1,9.1l2.4-2.5l0-0.7c-0.3-1.8-1-3.9-0.3-5.6c1.2-1.1,3.2-1.1,4.7-1.3l1.2-0.3l0.8-3.3
	l-7.4,0.8C531.3,711.9,529.9,688.9,526.9,666.1z"/>
<path class="st6" d="M589.2,409.6c25,7.8,65.6,35.2,84,53.9c-9.1,14.8-22.4,27-32.6,41.1c2.3,1.1,4.7,2.1,7.1,3
	c-2.7,3.5-6.1,7.1-8.4,10.9l-1.8,2.6c-11.1,13.6-21.1,28.9-30.3,43.9c-2.2,3.7-4.9,7.5-6.7,11.4l-1.9,3.1
	c-4.9,6.6-8.9,14.3-12.6,21.6c-2.5,4.9-10,23.4-12.6,25.9l-0.2,0.1c-0.5,5.2,1.3,22.7,2.6,27.7l0,1.8c-15.4,3.8-33.3,4.6-49.2,6.6
	c-1.3-21-6.3-41.7-7.8-62.7c6.7-1.9,18.3-2.3,25.7-3.4c9.4-1.4,18.7-3.7,28.1-5.3c0.3-1.3,0.1-2.7,0-4c-3-18-6.8-35.9-10.5-53.8
	l0.1-1c-2.9-11.7-4.3-23.7-7.3-35.5l-0.9-3.7c-0.6-0.5-1.3-0.8-1.6-1.6c-3.2-8.3,2.5-28.6-4.6-35.7c-3.1-3.1-6.5-2.9-10.5-3
	c0.8,1.2,1.1,1.6,0.7,3c-0.9,3.1-4.5,9.5-7.4,11.2l-0.6,0c-0.1-5-0.1-9.9,0-14.9c-0.2-5.4,0.1-10.9,0.3-16.3
	c15.4,0.5,30.7-3.3,43.7-11.6C579.9,420.4,584.7,415.5,589.2,409.6z"/>
<path class="st1" d="M640.6,504.6c2.3,1.1,4.7,2.1,7.1,3c-2.7,3.5-6.1,7.1-8.4,10.9l-1.8,2.6c-11.1,13.6-21.1,28.9-30.3,43.9
	c-2.2,3.7-4.9,7.5-6.7,11.4l-1.9,3.1c-4.9,6.6-8.9,14.3-12.6,21.6c-2.5,4.9-10,23.4-12.6,25.9c9.4-39.7,22.9-65.3,47.5-97.6
	C627.3,521,633.7,512.5,640.6,504.6z"/>
<path class="st5" d="M574,424.9c15.2,11.4,38.7,29,41.5,49c1,6.8-2,14-4.1,20.4c-3.9,12.2-8.2,24.4-13.4,36.1
	c-4.6,10.4-9.9,20.4-14.3,30.9c-4.4,10.4-8.3,21.1-10.9,32.1c-0.1,0.6,0,0.4-0.3,0.8l0.1-2.5c0.3-1.3,0.1-2.7,0-4
	c-3-18-6.8-35.9-10.5-53.8l0.1-1c-2.9-11.7-4.3-23.7-7.3-35.5l-0.9-3.7c-0.6-0.5-1.3-0.8-1.6-1.6c-3.2-8.3,2.5-28.6-4.6-35.7
	c-3.1-3.1-6.5-2.9-10.5-3c0.8,1.2,1.1,1.6,0.7,3c-0.9,3.1-4.5,9.5-7.4,11.2l-0.6,0c-0.1-5-0.1-9.9,0-14.9
	c-0.2-5.4,0.1-10.9,0.3-16.3C545.7,437,561,433.1,574,424.9z"/>
<path class="st4" d="M647.7,507.6c13.9,6.8,27.4,13.9,40,23c1.6,1.2,4.1,2.5,5.4,4l1.9,2.3c2,2.9,4.2,5.9,5.9,9
	c6.6,10.5,12.4,21.3,18,32.3l1,2.3c12.7,23.9,22.3,50.5,30.1,76.4l0.8,3.3c1.8,5.7,3.4,11.4,4.4,17.3l-1.9,0.1l-3,0
	c-10.2,0.4-20.5,0.8-30.7,1.4l-7.6,0.3c-11.3,0.4-22.5,1.1-33.8,1.3l-3.3,0.1c-6.8,0.4-13.6,0.6-20.4,0.8
	c-12.9,0.4-23.7,0.3-33,10.6c-1.8,2-3.2,4.1-4.3,6.6c-1.6,5.6-3.8,11.4-4.9,17.1c-2.1,4.9-3.6,10.3-5.2,15.4l-9.3,30.8
	c-1.9,6.3-3.5,12.9-6,18.9c-2.3-4.9-5.9-42.5-6.7-50.7l-0.4-3c-2-16.1-3.6-32.2-6-48.2c-0.7-6.6-1.5-13.1-2.3-19.7l0-0.5l-0.5-2.4
	l0-1.8c-1.3-5-3.1-22.5-2.6-27.7l0.2-0.1c2.6-2.4,10.1-21,12.6-25.9c3.7-7.3,7.7-15,12.6-21.6l1.9-3.1c1.8-3.9,4.4-7.7,6.7-11.4
	c9.1-15,19.2-30.3,30.3-43.9l1.8-2.6C641.5,514.7,645,511.1,647.7,507.6z"/>
<path class="st1" d="M711.8,667.9c0.1-0.5,0.3-1,0.5-1.5c2.1-0.8,4.4-0.7,6.6-0.6c0.3,4.4,0.6,8.7,0.7,13.1l-7.6,0.3
	C712,675.4,712,671.7,711.8,667.9z"/>
<path class="st0" d="M750.1,656.9l0.8,3.3c1.8,5.7,3.4,11.4,4.4,17.3l-1.9,0.1l-3,0c-1.1-5.5-3-11-4.8-16.4c-0.6-1.2-1-2.6-1.5-3.8
	c0.9-0.2,1.8-0.2,2.6-0.3L750.1,656.9z"/>
<path class="st4" d="M753.3,677.6c-0.9-3.9-5.6-13.4-4.5-16.9l2.1-0.5c1.8,5.7,3.4,11.4,4.4,17.3L753.3,677.6z"/>
<path class="st1" d="M693.1,534.6l1.9,2.3c-0.6,2.8,1,8.6,2.6,11c0.2,0.3,0.4,0.5,0.6,0.7c0.7,1.7,1.2,3.4,2,5
	c-1.8,8.6,2.8,19.2,4.2,27.9l0.8,3.4c4.3,18.8,8,37.9,10.8,57c0.9,6.4,2.2,13.2,2.5,19.6c-2.3,0.6-4.7,1.1-7,1.8
	c-0.5-9.5-1.7-19.1-2.8-28.5l-0.7-5.2c-1.4-21.1-6.5-45.1-9.8-66.1l-0.5-2.7C696.9,553.4,693,540.6,693.1,534.6z"/>
<path class="st0" d="M654.3,70.8c22.7-2.6,46.8,3.6,64.9,17.9c20.5,16.2,34.6,41.6,37.5,67.6c0.9,8.7,0.6,17.8-1.1,26.4
	c-1.4,7-4,13.7-5.3,20.8c-3.2,17.1,2.5,34.1,16.1,45.2c12.7,10.3,26.6,10.6,41.1,16.1c40.8,15.4,68.2,54.8,72.8,97.6
	c3.8,35.2-7.4,70.9-29.6,98.3c-5.8,7.1-12.4,13.9-19.7,19.4c31.8,7.2,57.9,23,75.6,51c15.7,24.9,20.4,54.6,13.8,83.2
	c-5.1,21.9-18.6,45.5-37.3,58.7c-23.3,1.7-46.8,1.9-70.2,2.8c-19.1,0.7-38.6,2.3-57.6,1.8c-1-5.9-2.5-11.6-4.4-17.3l-0.8-3.3
	c-7.8-25.9-17.3-52.5-30.1-76.4l-1-2.3c-5.6-11-11.5-21.9-18-32.3c-1.7-3.1-3.9-6-5.9-9l-1.9-2.3c-1.3-1.5-3.7-2.9-5.4-4
	c-12.6-9.1-26.1-16.2-40-23c-2.4-0.9-4.7-1.9-7.1-3c10.2-14.1,23.5-26.3,32.6-41.1c-18.4-18.7-59.1-46.1-84-53.9
	c5.7-8.7,10.2-18.1,13.7-27.9c2.1-5.8,8-33,10-34.6l-0.5-0.3c-0.6-3.1,2-11.2,2.7-14.7c2-9.5,2.9-19.3,4.7-28.9
	c6.8-7.2,8.7-15.2,9.8-24.8l-0.1-3.9l0-21.4l1.6-1.7c1-3.6,0.1-7.7,2.7-10.8c0.6-0.5,1.1-1,1.6-1.6c13.7-16.6,23.7-47.5,22-68.9
	c1.6-1.5,3.3-3.1,4.8-4.7c12.3-12.8,17.4-26.7,16.9-44.4c-0.6-7.1-2.4-13.4-5.3-19.8c-5.5,4-12,7.8-18.2,10.6
	c0.8-1.7,1.5-3.5,2.2-5.2c4.2-11,3.5-21-1.4-31.6C655.7,73.5,654.9,72.1,654.3,70.8z"/>
<path class="st13" d="M631,251.4c9.8,0.1,18.1,1.9,25.2,9.2c8.8,9.1,12.6,22.8,12.3,35.2c-0.4,15.7-7.9,31.9-19.5,42.6
	c-7,6.4-16.2,11-25.8,10.6c-3.5-0.2-6.9-0.9-10.2-1.9l-0.5-0.3c-0.6-3.1,2-11.2,2.7-14.7c2-9.5,2.9-19.3,4.7-28.9
	c6.8-7.2,8.7-15.2,9.8-24.8l-0.1-3.9l0-21.4L631,251.4z"/>
<path class="st5" d="M629.5,274.5c6-0.9,11.5-1.5,16.8,2.2c4.6,3.3,7.1,8.8,7.9,14.3c0.7,4.7,0.3,9.8-0.9,14.4l-0.6-0.4
	c-0.5-5.5-2.4-11.8-5.5-16.5c-4.4-6.6-10.3-8.7-17.7-10.2L629.5,274.5z"/>
<path class="st6" d="M629.5,278.4c7.4,1.5,13.3,3.5,17.7,10.2c3.1,4.7,4.9,10.9,5.5,16.5l0.6,0.4c-3.3,10-9.5,18-19.1,22.8
	c-6.2,3.1-12.3,3.9-19.1,3.9c2-9.5,2.9-19.3,4.7-28.9C626.6,296,628.5,288,629.5,278.4z"/>
<path class="st14" d="M417.2,53.4c25.7-18,55.5-23.1,86.2-17.6c12,2.1,23.9,5.5,35.2,10.1c22.2,8.9,47.4,26.3,70.7,10.1
	c3.6-2.5,6.6-5.5,9.6-8.6c1.8,2.1,3.8,4.2,4.8,6.8c3.5,7.8,3.9,15.1,1.4,23.3c0.2,0,0.4,0,0.6-0.1c4.7-1.9,14.6-15.5,17.5-20
	c4.5,4.2,7.8,8.2,11,13.5c0.6,1.3,1.5,2.7,2,4.1c4.8,10.6,5.6,20.6,1.4,31.6c-0.7,1.8-1.4,3.5-2.2,5.2c6.2-2.8,12.6-6.6,18.2-10.6
	c2.9,6.4,4.7,12.8,5.3,19.8c0.5,17.7-4.6,31.6-16.9,44.4c-1.5,1.6-3.2,3.2-4.8,4.7c1.7,21.4-8.3,52.3-22,68.9
	c-0.5,0.6-1,1.1-1.6,1.6c-2.5,3.1-1.6,7.1-2.7,10.8l-1.6,1.7l0,21.4l0.1,3.9c-1.1,9.6-3,17.6-9.8,24.8c-1.7,9.6-2.7,19.4-4.7,28.9
	c-0.7,3.5-3.3,11.6-2.7,14.7l0.5,0.3c-2,1.6-7.9,28.8-10,34.6c-3.5,9.8-8,19.2-13.7,27.9c-4.5,5.9-9.3,10.8-15.2,15.3
	c-13,8.2-28.3,12.1-43.7,11.6c-0.1,5.4-0.5,11-0.3,16.3c-0.1,5-0.1,9.9,0,14.9l-0.1,0.5c-0.5,0.6-0.3,0.4-1.1,0.9
	c-4.6,2.5-12,3.4-17.2,4.3c-21.9,3.8-45.1,2.4-66.6-3.3c-5.8-1.6-11.3-4.1-17.1-5.6l-0.5-0.1l-1.2-1c-2.4-1.4-7-3.5-8.5-5.8
	l-0.2-7.4c0.2-17.6-0.1-35.1-1-52.7c-0.4-7.1-1.7-14.3-2.4-21.5c-2.8-12.7-4.8-26-6.5-38.9c-5.2,5.1-10.7,9.3-17.5,12
	c-10.8,4.4-23.1,4.1-33.8-0.6c-13.7-6-24.3-18.1-29.7-31.9c-5.2-13.3-5.9-28.8,0-42.1c5.4-12.2,14-19.2,26.2-23.9
	c-4.5-4.7-8.3-10.2-11.6-15.8c-13.3-22.6-19.6-51.6-13-77.3c2.3-8.2,6.4-16.2,11.6-23c9.4-12.5,20.7-19.4,36.2-21.6
	c4.7,0,9.2,0.3,13.9,0.8c-2-9.7-0.9-18.4,2-27.8C397.4,72,405.3,62.5,417.2,53.4z"/>
<path class="st11" d="M417.6,230c3.3,3.8,1.8,10.1,2.7,14.8c-4,1-8,2-12.1,2.8C411.6,241.8,414.6,235.9,417.6,230z"/>
<path class="st13" d="M424.4,150.2c7.5-7,14-11.7,24.8-11.4c5.2,0.2,10.1,1.4,14.8,3.5c7.4,3.3,14.2,8.1,20.9,12.5
	c12.4,8.1,24.7,16.6,38,23.3c17.7,8.9,39.3,14.1,59.1,14c-4.2,1.6-6,4-11.2,4.7c-6.9,0.9-14.4-0.9-21.2-2.3
	c-23.5-4.9-45.6-12.3-65.6-26c-8-5.5-21.5-18.7-30.4-20.8c-7.1-1.7-14.9-0.1-21.7,2c-1.8,0.6-4.2,1.7-6.1,1.6
	C425,151.1,425,150.8,424.4,150.2z"/>
<path class="st11" d="M424.4,150.2c0.6,0.6,0.6,0.9,1.5,1c1.9,0.1,4.2-1.1,6.1-1.6c6.8-2.1,14.6-3.7,21.7-2
	c8.9,2.1,22.4,15.4,30.4,20.8c19.9,13.6,42.1,21.1,65.6,26c6.8,1.4,14.3,3.3,21.2,2.3c5.2-0.7,7-3.1,11.2-4.7
	c11.8-0.2,23.2-2.2,34.7-5c2.7,13.8,4.2,28.9,4.2,43c3.7-0.1,10.1-1.3,13.1,1c0.7,1.4,0.5,2.2,0.2,3.7c-0.5,0.6-0.8,1-1.4,1.4
	c-1.8,1.2-2.4,2.3-3.4,4.2c0,0.1-0.1,0.2-0.1,0.2c-0.4,4.1,0,8.4,0.1,12.5l0,21.4l0.1,3.9c-1.1,9.6-3,17.6-9.8,24.8
	c-10.3,8.8-22.5,11.8-35.9,10.7c-7.2-0.6-13.9-2.5-20.4-5.7l-1.7-1.2c-12.1-9.8-13.9-27.1-15.9-41.5c-0.7-1.9-1.5-3-3.4-3.8
	c-3-1.2-7.3-1.2-10.2,0.2c-3.3,1.6-5,4.9-6.1,8.2c-3.4,10.7-1.8,22.4-10.5,31c0.5-2.3,2.2-3.7,2.7-6c-0.4-1.3-0.6-1.4-1.7-2.2
	l-0.6,0.3c-1,1.7-1.6,3.1-3.4,3.9c-6.9,7.1-15,10.9-24.8,12.1c-11.7,1.5-28.8,1-38.5-6.8c-11.7-9.6-13.4-33.6-14.7-47.9
	c-0.1-1.1,0-2.9-0.8-3.7c-1-1-1.7-1.2-3-1.2c-1.3,0.9-1.3,0.8-1.7,2.3c-0.1-0.3-0.4-0.9-0.6-1.2c-2.7-0.1-5.4,1-8,1.7
	c-4.8,0.9-9.6,1.6-14.5,1.7c0.4-2.4,0.8-4.4,2.2-6.5c4-0.8,8.1-1.9,12.1-2.8c-0.9-4.7,0.6-11-2.7-14.8c9.5-20.3,15.1-41.1,11.2-63.7
	c-0.9-5.1-4-10.3-4.4-15.3C424.4,150.8,424.4,150.5,424.4,150.2z"/>
<path class="st14" d="M566.8,198.9c13.9,0.1,32.3,1.2,43.3,10.5c4.4,3.7,6.8,8.9,7,14.7c0,1.3-0.3,1.8-1.1,2.7
	c-1.9,0.1-2.7-0.5-4.4-1.3c-14.2-5.7-30.9-2-45.5-0.5c-0.9-0.4-1.4-0.9-1.8-1.7C561.1,217.6,565,204.8,566.8,198.9z"/>
<path class="st14" d="M477,201c10.2-0.8,19.9,0.3,29.8,2.5c-0.6,8.1-1.4,16.4-4.5,24c-11,0.5-23.2-2.1-34.8-2
	c-6.4,0.2-12.6,0.8-18.8,2.6c-2.7,0.8-5.7,2.7-8.5,2.9c-0.4-0.6-0.6-1.2-0.6-1.9c-0.6-5,1.5-9.6,4.6-13.4
	C452.2,205.8,464.9,202.2,477,201z"/>
<path class="st4" d="M428.8,242.6c2.1-4,4.3-8.2,8.1-10.9c1.7-1.2,3.1-1.7,5.1-2c8.1-1.1,17.2-0.3,25.4-0.3
	c11.9,0.1,32.5-0.6,43.6,1.2c6,1,9.2,5.2,12.6,9.7c0.9-0.4,1.9-0.8,2.9-1.1c6.7-2.1,12.3-1.4,18.5,1.8c1.4-2.3,2.9-4.8,4.8-6.7
	c1.8-1.9,3.8-2.9,6.4-3.4c7.4-1.5,15.9-0.9,23.4-0.9l41.4,0c3.7-0.1,10.1-1.3,13.1,1c0.7,1.4,0.5,2.2,0.2,3.7
	c-0.5,0.6-0.8,1-1.4,1.4c-1.8,1.2-2.4,2.3-3.4,4.2c0,0.1-0.1,0.2-0.1,0.2c-1.1-1.4-2-2.9-3.1-4.3c-1.2-0.4-1.3-0.4-2.5,0.1
	c-0.2-0.2-0.4-0.5-0.7-0.6c-0.8-0.4-54.9,0.4-60.7,0.8c-4,0.3-6.1,1.1-9,3.9c-2.5,8.3-3.6,19.1-2.8,27.7c-1.5-1.1-2.9-2-4.6-2.7
	c-0.7-1.9-1.5-3-3.4-3.8c-3-1.2-7.3-1.2-10.2,0.2c-3.3,1.6-5,4.9-6.1,8.2c-3.4,10.7-1.8,22.4-10.5,31c0.5-2.3,2.2-3.7,2.7-6
	c-0.4-1.3-0.6-1.4-1.7-2.2l-0.6,0.3c-1,1.7-1.6,3.1-3.4,3.9c5.4-8.7,6.3-18.5,7-28.5c0.6-8.3,0.3-22.9-5.7-29.3
	c-4.2-4.6-16-3.6-21.9-3.7c-11.5-0.3-39.7-1.9-49.3,0.6c-1.5,0.4-2.4,1-3.4,2.1c-4.3,4.3-4.6,10.5-4.7,16.2c-0.1-1.1,0-2.9-0.8-3.7
	c-1-1-1.7-1.2-3-1.2c-1.3,0.9-1.3,0.8-1.7,2.3c-0.1-0.3-0.4-0.9-0.6-1.2c-2.7-0.1-5.4,1-8,1.7c-4.8,0.9-9.6,1.6-14.5,1.7
	c0.4-2.4,0.8-4.4,2.2-6.5c4-0.8,8.1-1.9,12.1-2.8L428.8,242.6z"/>
<path class="st11" d="M434.7,254.4c0.1-5.7,0.4-11.9,4.7-16.2c1.1-1.1,1.9-1.7,3.4-2.1c9.6-2.5,37.8-0.9,49.3-0.6
	c5.8,0.1,17.6-0.9,21.9,3.7c6,6.4,6.2,21,5.7,29.3c-0.7,10-1.6,19.8-7,28.5c-6.9,7.1-15,10.9-24.8,12.1c-11.7,1.5-28.8,1-38.5-6.8
	C437.8,292.7,436.1,268.7,434.7,254.4z"/>
<path class="st15" d="M450.8,275.1c-0.8-1.4-1.1-2.7-1.1-4.4c0.1-5.6,3.4-11.7,7.5-15.4c4.4-4,10.4-6.1,16.4-5.6
	c5.5,0.4,10.6,2.9,14.1,7.1c3,3.5,5.3,9,5,13.7c-1-3.3-2-6.2-4-9.1c-3.1-4.7-6.8-6.3-12-7.8c-1.5,0.4-1.8,0.3-2.7,1.6l-0.4,2.4
	c-5.6-0.4-8.5,0.2-13.3,3.2c0.1-0.2,0.1-0.3,0.2-0.5c0.5-0.9,1.1-1.6,1.5-2.6l-0.7-1.2c-5.2,3.5-9.1,8.6-10.3,14.9
	C451,272.7,450.9,273.9,450.8,275.1z"/>
<path class="st16" d="M461.5,256.6c4.6-3.2,10.1-3.3,15.4-2.9c-1.5,0.4-1.8,0.3-2.7,1.6l-0.4,2.4c-5.6-0.4-8.5,0.2-13.3,3.2
	c0.1-0.2,0.1-0.3,0.2-0.5c0.5-0.9,1.1-1.6,1.5-2.6L461.5,256.6z"/>
<path class="st10" d="M476.9,253.7c5.1,1.5,8.9,3.1,12,7.8c2,2.8,2.9,5.8,4,9.1c1.4,3.2,1.5,6.3,0.1,9.6c-1.1,2.6-3.2,4.7-5.3,6.5
	c-4.4,2.7-8.5,4.1-13.8,4.2c-6.5,0.2-14.1-1.6-18.9-6.3c-2.9-2.8-4.1-5.4-4.1-9.4c0.1-1.2,0.1-2.4,0.3-3.6c1.1-6.3,5-11.4,10.3-14.9
	l0.7,1.2c-0.4,1-1,1.7-1.5,2.6c-0.1,0.1-0.1,0.3-0.2,0.5c-3.3,5-5,9.3-3.9,15.4c0.3,1.6,0.8,2.9,1.5,4.4c2.4,4.1,5.5,7.1,10.2,8.2
	c3.7,0.9,7.5,0,10.7-2c2.4-1.1,4-3.3,5.1-5.7c1.8-4.2,1.3-9.8-0.4-14c-2.1-5.1-5.1-7.5-9.9-9.6l0.4-2.4
	C475.1,254,475.4,254.1,476.9,253.7z"/>
<path class="st9" d="M488.9,261.5c2,2.8,2.9,5.8,4,9.1c1.4,3.2,1.5,6.3,0.1,9.6c-1.1,2.6-3.2,4.7-5.3,6.5c0-4.2,3.3-8.1,3.6-12.5
	C491.5,269.7,488.5,265.9,488.9,261.5z"/>
<linearGradient id="SVGID_1_" gradientUnits="userSpaceOnUse" x1="477.048" y1="757.8057" x2="461.4967" y2="740.2128" gradientTransform="matrix(1 0 0 -1 0 1024)">
	<stop  offset="0" style="stop-color:#1A0307"/>
	<stop  offset="1" style="stop-color:#10061F"/>
</linearGradient>
<path class="st17" d="M460.5,260.9c4.8-3,7.7-3.7,13.3-3.2c4.8,2.1,7.8,4.5,9.9,9.6c1.7,4.2,2.2,9.7,0.4,14c-1,2.4-2.7,4.6-5.1,5.7
	c-3.2,2-7,2.9-10.7,2c-4.7-1.1-7.9-4.1-10.2-8.2c-0.7-1.4-1.2-2.8-1.5-4.4C455.5,270.2,457.2,265.8,460.5,260.9z"/>
<path class="st10" d="M467,265.4c0.9,0.1,2,0.2,2.9,0.4c1.2,0.3,2.5,1.3,3,2.5c0.5,1.1,0.5,2.2,0,3.2c-0.7,1.4-1.9,1.9-3.2,2.6
	c-1.7-0.2-4-0.5-5.2-1.9c-0.5-0.6-0.8-1.3-0.8-2.1C463.7,267.9,465.4,266.7,467,265.4z"/>
<path class="st4" d="M460.5,260.9c4.8-3,7.7-3.7,13.3-3.2c4.8,2.1,7.8,4.5,9.9,9.6c1.7,4.2,2.2,9.7,0.4,14c-1,2.4-2.7,4.6-5.1,5.7
	c0.3-0.6,0.6-1.2,0.8-1.8c0.6-1.2,1.2-2.4,1.4-3.7c0.9-5.2-0.6-11.6-3.8-15.7c-1.9-2.4-4.6-4.3-7.7-4.6c-2.4-0.2-4.7,0.5-6.6,2.1
	c-6.7,5.4-4.1,9.7-4.9,16.6c0,0.3-0.1,0.6-0.1,0.9c-0.7-1.4-1.2-2.8-1.5-4.4C455.5,270.2,457.2,265.8,460.5,260.9z"/>
<path class="st11" d="M553.4,240.4c2.9-2.8,4.9-3.6,9-3.9c5.7-0.4,59.9-1.2,60.7-0.8c0.3,0.1,0.5,0.4,0.7,0.6
	c1.2-0.4,1.3-0.5,2.5-0.1c1.1,1.4,2,2.9,3.1,4.3c-0.4,4.1,0,8.4,0.1,12.5l0,21.4l0.1,3.9c-1.1,9.6-3,17.6-9.8,24.8
	c-10.3,8.8-22.5,11.8-35.9,10.7c-7.2-0.6-13.9-2.5-20.4-5.7l-1.7-1.2c-12.1-9.8-13.9-27.1-15.9-41.5c1.7,0.7,3.1,1.6,4.6,2.7
	C549.8,259.5,550.9,248.8,553.4,240.4z"/>
<path class="st15" d="M557.2,265c0.6-1.9,1.3-3.8,2.3-5.5c3.1-5,7.9-8.2,13.6-9.3c6.1-1.2,12.7-0.2,17.9,3.3
	c7.6,5.2,9.6,13.2,11.1,21.7c-1.1-2-1.8-4.3-2.7-6.4c-2.6-5.8-6.3-11.6-12.5-13.9c-6.6-2-13-1.5-19.2,1.7c-1.1,0.6-2.2,1.2-3.1,2.1
	C561.8,260.3,559.4,262.6,557.2,265z"/>
<path class="st10" d="M564.5,258.6c0.9-0.8,2-1.5,3.1-2.1c6.2-3.2,12.6-3.7,19.2-1.7c4.8,6.1,8,14.2,6.9,22.1
	c-0.6,4.5-3.1,8.2-6.8,10.8c-4.9,3.5-11.3,4.9-17.2,3.7c-2.1-0.4-3.8-0.9-5.2-2.7c4.1,1.2,7.5,2,11.7,0.5c3.2-1.4,5.6-3,7.5-6
	c2.7-4.2,3.3-9.2,2.2-14c-1.1-4.3-3.5-8.3-7.4-10.5C573.6,256.1,569.7,257.2,564.5,258.6z"/>
<path class="st18" d="M564.5,258.6c5.2-1.4,9-2.6,14.1,0.3c3.9,2.2,6.4,6.2,7.4,10.5c1.2,4.8,0.6,9.8-2.2,14c-1.9,3-4.3,4.5-7.5,6
	c-4.2,1.5-7.6,0.7-11.7-0.5c-4.3-2.9-5.9-5.2-7.2-10.2c-1.5-4.4-1.5-9.2-0.3-13.7C559.4,262.6,561.8,260.3,564.5,258.6z"/>
<path class="st10" d="M564.9,267c1.6,0.3,3.5,0.8,4.4,2.2c0.7,1,0.7,2.1,0.2,3.2c-0.6,1.4-2.1,2.1-3.4,2.8c-2.1-0.2-3.3-0.4-4.7-2.1
	c-0.3-0.9-0.5-1.2-0.3-2.2C561.7,268.9,563.1,268,564.9,267z"/>
<path class="st0" d="M564.5,258.6c5.2-1.4,9-2.6,14.1,0.3c3.9,2.2,6.4,6.2,7.4,10.5c1.2,4.8,0.6,9.8-2.2,14c-1.9,3-4.3,4.5-7.5,6
	c2.6-3.6,4.7-6.9,5.1-11.4c0.4-4.2-0.8-8.6-3.5-11.8c-2-2.3-4.7-3.8-7.7-3.9c-3-0.1-6,1-8.3,3.1c-3.7,3.5-4.4,8.5-4.5,13.3
	c-1.5-4.4-1.5-9.2-0.3-13.7C559.4,262.6,561.8,260.3,564.5,258.6z"/>
<path class="st2" d="M623.7,236.4c1.2-0.4,1.3-0.5,2.5-0.1c1.1,1.4,2,2.9,3.1,4.3c-0.4,4.1,0,8.4,0.1,12.5l0,21.4l0.1,3.9
	c-1.1,9.6-3,17.6-9.8,24.8c-10.3,8.8-22.5,11.8-35.9,10.7c-7.2-0.6-13.9-2.5-20.4-5.7l-1.7-1.2c-12.1-9.8-13.9-27.1-15.9-41.5
	c1.7,0.7,3.1,1.6,4.6,2.7c2.2,10.9,3.5,24.6,11.7,32.9c6.3,6.4,16.8,8.1,25.4,8c10-0.1,21.8-2.5,28.9-10
	C627.4,287.6,624.4,251.7,623.7,236.4z"/>
<path class="st11" d="M352.7,250.6c8.7-2.7,17.3-2,25.3,2.3c13.7,7.3,22.1,20.4,27.7,34.4c-1-11-1.5-22.3,0.4-33.2
	c4.9-0.2,9.7-0.9,14.5-1.7c2.6-0.7,5.3-1.8,8-1.7c0.2,0.3,0.5,0.8,0.6,1.2c0.4-1.5,0.3-1.5,1.7-2.3c1.3,0.1,2.1,0.2,3,1.2
	c0.8,0.8,0.7,2.6,0.8,3.7c1.3,14.3,3,38.3,14.7,47.9c9.6,7.9,26.8,8.3,38.5,6.8c9.8-1.2,17.9-5,24.8-12.1c1.8-0.8,2.4-2.2,3.4-3.9
	l0.6-0.3c1.1,0.8,1.2,0.9,1.7,2.2c-0.5,2.3-2.3,3.8-2.7,6c8.7-8.5,7.1-20.3,10.5-31c1.1-3.3,2.8-6.7,6.1-8.2c3-1.4,7.2-1.4,10.2-0.2
	c1.9,0.8,2.7,1.9,3.4,3.8c2,14.4,3.7,31.7,15.9,41.5l1.7,1.2c6.5,3.2,13.2,5.1,20.4,5.7c13.4,1.1,25.6-1.9,35.9-10.7
	c-1.7,9.6-2.7,19.4-4.7,28.9c-0.7,3.5-3.3,11.6-2.7,14.7l0.5,0.3c-2,1.6-7.9,28.8-10,34.6c-3.5,9.8-8,19.2-13.7,27.9
	c-4.5,5.9-9.3,10.8-15.2,15.3c-13,8.2-28.3,12.1-43.7,11.6c-0.1,5.4-0.5,11-0.3,16.3c-0.1,5-0.1,9.9,0,14.9l-0.1,0.5
	c-0.5,0.6-0.3,0.4-1.1,0.9c-4.6,2.5-12,3.4-17.2,4.3c-21.9,3.8-45.1,2.4-66.6-3.3c-5.8-1.6-11.3-4.1-17.1-5.6l-0.5-0.1l-1.2-1
	c-2.4-1.4-7-3.5-8.5-5.8l-0.2-7.4c0.2-17.6-0.1-35.1-1-52.7c-0.4-7.1-1.7-14.3-2.4-21.5c-2.8-12.7-4.8-26-6.5-38.9
	c-5.2,5.1-10.7,9.3-17.5,12c-10.8,4.4-23.1,4.1-33.8-0.6c-13.7-6-24.3-18.1-29.7-31.9c-5.2-13.3-5.9-28.8,0-42.1
	C331.9,262.2,340.5,255.3,352.7,250.6z"/>
<path class="st6" d="M537.3,324.1c5.1,5.9,9.8,10,18,10.6c0.4,0,0.8,0.1,1.2,0.1c-2.6,1.6-5,2.4-8,2c-3.7-0.5-7.5-2.2-9.7-5.4
	C537,328.9,536.8,327,537.3,324.1z"/>
<path class="st13" d="M561.8,306.9l1.7,1.2c0,0.3,0,0.5,0,0.8c0.1,1.8,0.8,3.4,1,5.2c0.9,6.3-0.1,11.8-4.2,16.8
	c-1.1,1.4-2.5,2.7-3.9,3.8c-0.4,0-0.8,0-1.2-0.1c-8.2-0.6-12.9-4.6-18-10.6c5-4.8,13.3-5.8,19.2-9.5
	C559.7,312.6,561,310.5,561.8,306.9z"/>
<path class="st12" d="M429.3,251.8c0.4-1.5,0.3-1.5,1.7-2.3c1.3,0.1,2.1,0.2,3,1.2c0.8,0.8,0.7,2.6,0.8,3.7
	c1.3,14.3,3,38.3,14.7,47.9c9.6,7.9,26.8,8.3,38.5,6.8c9.8-1.2,17.9-5,24.8-12.1c1.8-0.8,2.4-2.2,3.4-3.9l0.6-0.3
	c1.1,0.8,1.2,0.9,1.7,2.2c-0.5,2.3-2.3,3.8-2.7,6c-6.6,8.3-18.4,11.7-28.4,12.8c-13.4,1.5-31.6,0.4-42.4-8.6
	C432.7,295,430.7,267.1,429.3,251.8z"/>
<path class="st5" d="M496.8,344.5c-1.8,0-2.5,1.8-4.1,2.6l-0.9-0.5c-0.2-1.1-0.3-1.3,0.3-2.3c1.1-1.9,5.2-6.2,7.4-6.8l1,0.5
	c0,2.4-3,3.1-2.9,5.5c21.4,8.1,43.6,10.4,66.3,8.3c-2.9,8.4-7.9,14.6-15.9,18.5c-8.8,4.3-19.4,4.8-28.6,1.5
	c-6-2.2-10.7-5.9-14.8-10.7C500.7,355.9,498.1,351,496.8,344.5z"/>
<path class="st10" d="M500.6,347.2c18.9,6.7,39.9,8.9,59.8,7.4c-4,7.7-8.9,12.8-17.4,15.6c-8.6,2.8-19,2.3-27.1-2
	c-3.9-2.1-6.8-4.9-9.7-8.3c-0.9-1.3-1.8-2.6-2.7-4C502.3,353.6,500,349.7,500.6,347.2z"/>
<path class="st13" d="M352.7,250.6c8.7-2.7,17.3-2,25.3,2.3c13.7,7.3,22.1,20.4,27.7,34.4c-1-11-1.5-22.3,0.4-33.2
	c4.9-0.2,9.7-0.9,14.5-1.7c-3.3,6.9-6.4,13.9-7.8,21.5c-3.8,21.3,2.8,52.3,10,72.7c11.6,32.8,31.7,65,64.1,80.3
	c13.8,6.5,28.3,9,43.4,9.7c-0.1,5.4-0.5,11-0.3,16.3c-0.1,5-0.1,9.9,0,14.9l-0.1,0.5c-0.5,0.6-0.3,0.4-1.1,0.9
	c-4.6,2.5-12,3.4-17.2,4.3c-21.9,3.8-45.1,2.4-66.6-3.3c-5.8-1.6-11.3-4.1-17.1-5.6l-0.5-0.1l-1.2-1c-2.4-1.4-7-3.5-8.5-5.8
	l-0.2-7.4c0.2-17.6-0.1-35.1-1-52.7c-0.4-7.1-1.7-14.3-2.4-21.5c-2.8-12.7-4.8-26-6.5-38.9c-5.2,5.1-10.7,9.3-17.5,12
	c-10.8,4.4-23.1,4.1-33.8-0.6c-13.7-6-24.3-18.1-29.7-31.9c-5.2-13.3-5.9-28.8,0-42.1C331.9,262.2,340.5,255.3,352.7,250.6z"/>
<path class="st11" d="M426.2,463.3c2.1-6.4,6.7-25.4,10.4-29.6c2.3-0.9,4.4,0.3,6.4,1.2c6.1,2.7,12.3,5.8,17.8,9.5
	c4.4,3,8.2,6.6,12.4,9.8c9.2,6.9,20.4,11.4,31.8,13.1c8.4,1.2,16.5,0.3,24.9,0.9c-0.5,0.6-0.3,0.4-1.1,0.9c-4.6,2.5-12,3.4-17.2,4.3
	c-21.9,3.8-45.1,2.4-66.6-3.3c-5.8-1.6-11.3-4.1-17.1-5.6l-0.5-0.1L426.2,463.3z"/>
<path class="st6" d="M342.5,295.6c0.7-7.8,2.8-14.5,9.1-19.7c4.1-3.4,9.3-5.4,14.7-4.9c6.1,0.6,11.2,4,15,8.7
	c8,10.1,12.5,26.6,10.9,39.3c-0.5,4.3-1.7,9.3-4.8,12.5c-2.7,2.4-7.2,2.9-10.6,2.7c-9.7-0.5-19-5.8-25.2-13
	C345.6,314.2,341.8,304.9,342.5,295.6z"/>
<path class="st5" d="M342.5,295.6c0.7-7.8,2.8-14.5,9.1-19.7c4.1-3.4,9.3-5.4,14.7-4.9c6.1,0.6,11.2,4,15,8.7
	c8,10.1,12.5,26.6,10.9,39.3c-0.5,4.3-1.7,9.3-4.8,12.5c2.2-9.5-0.2-17.6-3.3-26.6c-3.5,2.1-15.2,12.9-17.1,13.2
	c-0.5-1-0.5-0.6-0.3-1.7c1.2-8.5,9.2-14.4,15.5-19.2c-2.2-6-5.5-12.8-11.2-16.1c-3.9-2.2-8.6-2.3-12.8-1.2
	c-10,2.7-10.7,7.2-15.1,14.8L342.5,295.6z"/>
<path class="st4" d="M333.3,491.1c26.5,21.4,53.2,42.1,78,65.6l4,3.8c6.6,6.5,13.6,12.9,19.8,19.7c9,9.9,17,21,24.6,32
	c2.4,5.4,3.5,11,4.6,16.7l1.8,9.4l0.7,4.4c1.5,8.4,2.8,16.8,4,25.2l0.7,3.9c2.2,15.2,4.3,30.3,6.2,45.5l0.5,4.3
	c0.7,6.1,1.5,12.1,1.9,18.2l0.4,3.2c1.5,11.4,2.7,22.8,3.6,34.3c0.6,6.6,0.7,13.6,1.8,20.2l0,1.4l0.3,3.7l0.3,0.7l0.1,3
	c1.2,10.1,1.2,20.5,2.7,30.6l0.9,1.2c-10,14.6-19.1,29.1-32.2,41.1l-4.5,4.3c-5.6,2.4-10.4,4-12.8,10.1c-3.3,8.2-4.4,19.8-3.3,28.6
	l0.3,5.5c8.3,5.6,19.3,13.2,29.9,11.3c6.2-1.1,14.7-5.3,18.5-10.5c0.5-0.7,0.5-0.7,0.8-1.3c1.5-0.4,3.3-0.3,4.9-0.3
	c-0.3,2.1-0.5,4.6-1.1,6.6c-0.6,9.6-2,19.4-3.2,28.9l-0.6,4.3c-1.4,9.4-2.5,18.9-3.4,28.4L261.1,995l3.6-24.4l2.5-13.5
	c-6.7-1.9-13.8-2.8-20.6-4.5c-15.5-3.8-31-9.1-45.6-15.7c-25.4-11.5-55.1-29.1-65.4-56.4c-2-6.2-2.9-12.5-2.9-19
	c0-12.3,2.2-25,4.2-37.1c6.5-40.2,16.3-80.6,28.6-119.4l1.1-4c6.1-21.4,13.3-43.2,21.6-63.8l9.9-23l1.4-3.1
	c6.7-15.3,28.2-58.5,42.9-66.2c1.3-0.7,1.8-0.6,3.2-0.1c13.3-10.7,27.2-20.6,41.9-29.4c7.3-4.5,15-8.6,22.6-12.6l3-1.6
	C320.1,498.2,326.7,494.6,333.3,491.1z"/>
<path class="st3" d="M284.2,816.7c1.6,0.2,3.3,0.4,4.8,0.9c-3.9,2.1-7.8,3.9-11.5,6.4c-15,10-29.7,21.7-40.2,36.5
	c-1.1,1.6-3.2,4-3.5,5.9c0,0.2-0.1,0.4-0.1,0.7l-0.6,0.6c0-0.3,0-0.6,0-0.9c-0.2-1.2-0.9-1.4-1.9-1.9c8.7-15.1,24.5-29.3,38.8-39.2
	c4.4-3.1,9.4-5.2,13.7-8.6L284.2,816.7z"/>
<path class="st3" d="M351.3,844.9c4.1-1,7.8-3.4,12-4.5l-8.8,5.4c-21.1,15.5-34.3,33.1-44.1,57.4l-3-0.9l0-0.2
	c3.1-5.6,5.4-11.7,8.5-17.4C324.2,869.6,336.9,854.7,351.3,844.9z"/>
<path class="st12" d="M443.3,880.3c2.3-2.2,5.7-4.8,8.9-5.1c2.1-0.2,2.9,0.9,4.2,2.1c0.5,0.7,1,1.4,1.6,2.1l-4.5,4.3
	c-5.6,2.4-10.4,4-12.8,10.1c-3.3,8.2-4.4,19.8-3.3,28.6l-0.9-0.2c0-1.4-0.4-2.6-0.8-4C434.1,905,435.8,891.5,443.3,880.3z"/>
<path class="st3" d="M288.8,616.9c3.3,5.2,5.7,11.3,8.2,16.9c4.9,10.9,9.8,22.5,15.8,32.8c-2.8,1.1-5.8,1.8-8.7,2.5
	c-1.1-5.4-2.9-10.9-4.5-16.2C297.8,643.6,288.3,624.1,288.8,616.9z"/>
<path class="st3" d="M331.9,830.2c5.2-0.7,10.5-0.8,15.7-1.5c5.7-0.7,16.8-3.5,21.9-3c0.3,4.2,2.4,13.9,1.6,17.3l-0.4,0.3
	C357.8,838.8,344.9,834.3,331.9,830.2z"/>
<path class="st1" d="M287.5,515.3c7.3-4.5,15-8.6,22.6-12.6c1.2,8.3,9.6,22.2,9.9,27.1C309.4,524.8,298.6,519.4,287.5,515.3z"/>
<path class="st1" d="M415.3,560.6c6.6,6.5,13.6,12.9,19.8,19.7c9,9.9,17,21,24.6,32c2.4,5.4,3.5,11,4.6,16.7
	c-3.9-3.9-7.2-8.4-11-12.4c-9-9.6-19.1-18.5-29.9-26.1l-0.4-0.9C422.2,581.5,414.3,567.2,415.3,560.6z"/>
<path class="st3" d="M362.4,742.3c19.7,25.5,42,47.9,68,67l-10,1.8c-15.9,2.9-31.9,6.1-47.9,8.6C368.3,794,367.3,767.8,362.4,742.3z
	"/>
<path class="st3" d="M333.3,491.1c26.5,21.4,53.2,42.1,78,65.6l-1.8,1.4c-0.2,1.9,7.3,22.5,8.3,27.2c-8.6-7-19.2-15.5-29.3-20.3
	c-2-1.3-4-2.4-6.2-3.5c-4.3-3.1-9.7-5.5-14.4-8.1c-14.3-7.7-28.8-14.9-43.6-21.5l-0.7-0.7c-2.6-10.2-6-20.7-10.3-30.2
	C320.1,498.2,326.7,494.6,333.3,491.1z"/>
<path class="st1" d="M231.2,864.9c1,0.5,1.6,0.7,1.9,1.9c0.1,0.3,0,0.6,0,0.9c-10.2,11.9-19.5,36.4-23,51.8
	c28.9,9.3,58.7,17.2,89.2,18.8c1.2-11.5,2.8-25.5,8.1-35.8l3,0.9c-3.5,11.8-6.4,23.1-8,35.3c31.3,2.5,61.8,1.6,92.6-4.4
	c1.1,8.6,3,15.6,7.5,23c-45.5,4.8-90,6.9-135.3-0.1c-6.7-1.9-13.8-2.8-20.6-4.5c-15.5-3.8-31-9.1-45.6-15.7
	c-25.4-11.5-55.1-29.1-65.4-56.4c5.5,0.2,16.7,9.9,21.9,13.3c15.6,10.2,32.8,17.5,49.9,24.6C212.4,897,219.2,883,231.2,864.9z"/>
<path class="st12" d="M245.7,544.7c5.6,1.1,12.9,13.4,16.1,18.2c4.7,7.1,8.9,14.6,12.8,22.1l1.7,3.3l12.5,28.5
	c-0.5,7.2,9,26.7,10.8,36.1c1.6,5.3,3.5,10.8,4.5,16.2l1.2,3.5c1.8,13,4.9,25.7,6.1,38.9c0.7,7.8,1.2,15.5,1.4,23.3
	c0.1,4.5-0.4,10,0.6,14.4l0.1,0.5c-0.7,24.5-2.4,49-3.7,73.4c-6.7-2.5-14-3.6-20.8-5.5c-1.6-0.5-3.2-0.6-4.8-0.9l-0.5,0.4
	c-4.2,3.4-9.2,5.5-13.7,8.6c-14.3,9.9-30.2,24-38.8,39.2c-0.7-0.1-1.2-0.3-1.9-0.6c-10.2-5.2-25.8-19.8-32.3-29.1
	c-3-4.2-5.1-8.5-6.6-13.4c-17.8,7.6-33.2,17.1-47.4,30.3c11.9-20.1,30.4-31.1,51.9-38.8c-1.3-1.2-1.3-3.9-1.5-5.6
	c-1.2-8.4-0.7-17.4-0.8-25.8c-9.6,0.1-18.8,1.3-28.1,3.5c11.3-5.9,22.5-8.8,35.1-10.2c9.4-0.8,18.3,0.2,27.7,1.6l3.2,0.8
	c19.4,4.3,40.2,11.4,51.5,29c0.9,1.4,1.7,3,2.4,4.5c1.5-3,3.1-5.9,4.3-9l1.3-3.6c5.8-12.9,10.4-27.9,12.6-41.9l0.7-2.3
	c5.8-36.6,2.8-62.8-4.8-98.7c-0.9-3.7-1.7-7.5-2.9-11.1c-0.9-2.9-1.8-5.5-4.6-6.9l-0.2-0.6c-3.4-10.1-7.5-19.8-10.9-29.8l-2.2-5
	c-6-16.2-15.8-31.7-25.2-46.1C250.5,552.1,247.1,548.9,245.7,544.7z"/>
<path class="st4" d="M192.6,782c7.2-0.1,14.2-0.1,21.4,0.6c4.2,0.4,8.8,1.5,12.9,1.5l2.7,0.9c18.6,4.4,39.5,11.1,50.4,28.1
	c-5.6-1.6-11.4-3.6-17.1-4.4c-23-3.4-45.7-1.8-68,4.8c-1.3-1.2-1.3-3.9-1.5-5.6C192.3,799.4,192.7,790.4,192.6,782z"/>
<path class="st4" d="M190.4,821.8c8.8-3.2,17.8-6,27.1-7.7c20.7-3.7,46.3-2.1,66.7,2.6l-0.5,0.4c-4.2,3.4-9.2,5.5-13.7,8.6
	c-14.3,9.9-30.2,24-38.8,39.2c-0.7-0.1-1.2-0.3-1.9-0.6c-10.2-5.2-25.8-19.8-32.3-29.1C194.1,831,192,826.7,190.4,821.8z"/>
<path class="st1" d="M414.2,868.4c1.6,0.3,3.3,0.2,4.3,1.7c-11.3,13-17.1,33.7-18.1,50.5c0,4.1-0.1,8.2,0.4,12.3
	c10.1-3.1,22.3-6.5,30.9-12.7c1.5-0.6,2.8-1,4-2.2c0.4,1.4,0.7,2.5,0.8,4l0.9,0.2l0.3,5.5c8.3,5.6,19.3,13.2,29.9,11.3
	c6.2-1.1,14.7-5.3,18.5-10.5c0.5-0.7,0.5-0.7,0.8-1.3c1.5-0.4,3.3-0.3,4.9-0.3c-0.3,2.1-0.5,4.6-1.1,6.6c-0.6,9.6-2,19.4-3.2,28.9
	l-0.6,4.3c-1.4,9.4-2.5,18.9-3.4,28.4L261.1,995l3.6-24.4l2.5-13.5c45.3,7,89.8,4.9,135.3,0.1c-4.5-7.4-6.4-14.5-7.5-23
	c-0.4-4.6-0.3-9.1-0.1-13.7C396.7,902.1,402,882.8,414.2,868.4z"/>
<path class="st12" d="M414.2,868.4c1.6,0.3,3.3,0.2,4.3,1.7c-11.3,13-17.1,33.7-18.1,50.5c0,4.1-0.1,8.2,0.4,12.3
	c10.1-3.1,22.3-6.5,30.9-12.7c1.5-0.6,2.8-1,4-2.2c0.4,1.4,0.7,2.5,0.8,4l0.9,0.2l0.3,5.5c8.3,5.6,19.3,13.2,29.9,11.3
	c6.2-1.1,14.7-5.3,18.5-10.5c0.5-0.7,0.5-0.7,0.8-1.3c1.5-0.4,3.3-0.3,4.9-0.3c-0.3,2.1-0.5,4.6-1.1,6.6c-2.1,0.7-4.3,3.6-6.1,5
	c-8.7,7-18.9,10.6-29.8,12c4.4,0.9,8.8,1.1,13.3,1.4c-10.1,3.7-20.8,5.5-31.3,7.6c-43.3,8.5-86.6,11.5-130.7,11.8
	c-8.1,0.1-16.2,0-24.3-0.3c-5.6-0.2-11.4-0.8-16.9-0.5l2.5-13.5c45.3,7,89.8,4.9,135.3,0.1c-4.5-7.4-6.4-14.5-7.5-23
	c-0.4-4.6-0.3-9.1-0.1-13.7C396.7,902.1,402,882.8,414.2,868.4z"/>
<path class="st1" d="M435.8,918.1c0.4,1.4,0.7,2.5,0.8,4c0.2,10.1,1.4,21.3,7.2,29.8c-11.3,1.3-23.1,2.3-34.3,4.4
	c-4.7-7.2-7.6-14.8-8.6-23.3c10.1-3.1,22.3-6.5,30.9-12.7C433.2,919.7,434.6,919.2,435.8,918.1z"/>
<path class="st3" d="M165.5,705c10.3-1,23.4,0,33.6,2.5c-1.2,10.1-7.2,60-5.8,66.8l2.4-0.1l4,1c-12.7,1.4-23.8,4.3-35.1,10.2
	c9.3-2.1,18.5-3.4,28.1-3.5c0.1,8.4-0.3,17.4,0.8,25.8c0.2,1.7,0.2,4.3,1.5,5.6c-21.5,7.7-40,18.7-51.9,38.8
	c14.2-13.2,29.6-22.8,47.4-30.3c1.5,4.9,3.7,9.2,6.6,13.4c6.5,9.3,22.1,23.9,32.3,29.1c0.6,0.3,1.2,0.4,1.9,0.6
	c-12,18.2-18.8,32.2-23.8,53.5c-17.1-7-34.4-14.4-49.9-24.6c-5.1-3.4-16.4-13.1-21.9-13.3c-2-6.2-2.9-12.5-2.9-19
	c0-12.3,2.2-25,4.2-37.1C143.3,784.3,153.2,743.8,165.5,705z"/>
<path class="st4" d="M199.6,611.1c6.7-15.3,28.2-58.5,42.9-66.2c1.3-0.7,1.8-0.6,3.2-0.1c1.4,4.2,4.8,7.4,6.9,11.2
	c9.4,14.4,19.2,29.9,25.2,46.1l2.2,5c3.4,10,7.5,19.8,10.9,29.8l0.2,0.6c2.8,1.4,3.7,4,4.6,6.9c1.1,3.6,2,7.4,2.9,11.1
	c7.7,35.9,10.6,62.1,4.8,98.7l-0.7,2.3c-2.3,13.9-6.9,29-12.6,41.9l-1.3,3.6c-1.1,3.1-2.8,6.1-4.3,9c-0.8-1.5-1.5-3.1-2.4-4.5
	c-11.3-17.6-32.1-24.7-51.5-29l-3.2-0.8c-9.3-1.4-18.2-2.3-27.7-1.6l-4-1l-2.4,0.1c-1.4-6.8,4.6-56.6,5.8-66.8
	c-10.2-2.6-23.2-3.5-33.6-2.5l1.1-4c6.1-21.4,13.3-43.2,21.6-63.8l9.9-23L199.6,611.1z"/>
<path class="st3" d="M198.2,614.2c7.6,2,15.4,2.2,23.1,3.8c-4.7,14.1-9.3,28.4-12.7,42.8c-3.2,13.8-5.4,27.8-8.1,41.7
	c-6.3-0.9-12.7-1.7-19.2-1.7c-4.9-0.1-9.8,0.4-14.8,0.3c6.1-21.4,13.3-43.2,21.6-63.8L198.2,614.2z"/>
</svg>
